<?xml version="1.0" encoding="UTF-8"?>
<svg width="408px" height="220px" viewBox="0 0 408 220" version="1.1" xmlns="http://www.w3.org/2000/svg" xmlns:xlink="http://www.w3.org/1999/xlink">
    <!-- Generator: Sketch 53.1 (72631) - https://sketchapp.com -->
    <title>coffee/bg</title>
    <desc>Created with Sketch.</desc>
    <g id="Page-1" stroke="none" stroke-width="1" fill="none" fill-rule="evenodd">
        <g id="Fuller-Page-Copy-8" transform="translate(-240.000000, -660.000000)">
            <g id="Group-6" transform="translate(180.000000, 659.000000)">
                <g id="Group-4">
                    <g id="Group">
                        <g id="Card">
                            <g id="Stoble-Coffee-Roasters---Illustration" transform="translate(59.000000, 0.000000)">
                                <g id="bg" transform="translate(1.000000, 1.000000)">
                                    <g id="Bricks" transform="translate(45.000000, 49.000000)">
                                        <g id="Bricks-1">
                                            <path d="M23.97695,1.1935 C23.97695,0.535 23.44225,1.77635684e-15 22.78365,1.77635684e-15 L1.1933,1.77635684e-15 C0.5347,1.77635684e-15 -1.71063164e-12,0.535 -1.71063164e-12,1.1935 L-1.71063164e-12,10.74 C-1.71063164e-12,11.3985 0.5347,11.933 1.1933,11.933 L22.78365,11.933 C23.44225,11.933 23.97695,11.3985 23.97695,10.74 L23.97695,1.1935 Z" id="Fill-2" fill="#E3EBEE"></path>
                                            <path d="M23.97695,29.511 C23.97695,28.8525 23.44225,28.3175 22.78365,28.3175 L1.1933,28.3175 C0.5347,28.3175 -1.71063164e-12,28.8525 -1.71063164e-12,29.511 L-1.71063164e-12,39.0575 C-1.71063164e-12,39.716 0.5347,40.2505 1.1933,40.2505 L22.78365,40.2505 C23.44225,40.2505 23.97695,39.716 23.97695,39.0575 L23.97695,29.511 Z" id="Fill-3" fill="#EBF1F3"></path>
                                            <path d="M37.1044,15.352 C37.1044,14.6935 36.5697,14.159 35.9111,14.159 L14.32075,14.159 C13.66215,14.159 13.12745,14.6935 13.12745,15.352 L13.12745,24.8985 C13.12745,25.557 13.66215,26.092 14.32075,26.092 L35.9111,26.092 C36.5697,26.092 37.1044,25.557 37.1044,24.8985 L37.1044,15.352 Z" id="Fill-4" fill="#EBF1F3"></path>
                                        </g>
                                        <g id="Bricks-3" transform="translate(280.000000, 58.000000)" fill="#EBF1F3">
                                            <path d="M23.977,15.352 C23.977,14.6935 23.4425,14.159 22.784,14.159 L1.1935,14.159 C0.535,14.159 -5.13367127e-13,14.6935 -5.13367127e-13,15.352 L-5.13367127e-13,24.8985 C-5.13367127e-13,25.557 0.535,26.092 1.1935,26.092 L22.784,26.092 C23.4425,26.092 23.977,25.557 23.977,24.8985 L23.977,15.352 Z" id="Fill-7"></path>
                                            <path d="M37.1045,1.1935 C37.1045,0.535 36.57,1.77635684e-15 35.9115,1.77635684e-15 L14.321,1.77635684e-15 C13.6625,1.77635684e-15 13.1275,0.535 13.1275,1.1935 L13.1275,10.74 C13.1275,11.3985 13.6625,11.933 14.321,11.933 L35.9115,11.933 C36.57,11.933 37.1045,11.3985 37.1045,10.74 L37.1045,1.1935 Z" id="Fill-8"></path>
                                        </g>
                                    </g>
                                    <g id="ground" transform="translate(74.000000, 218.000000)" stroke="#002D33" stroke-linecap="round" stroke-linejoin="round">
                                        <path d="M240.974542,1.5 L1.06208696,1.5" id="Stroke-9"></path>
                                        <path d="M259.507423,1.5 L245.821874,1.5" id="Stroke-10"></path>
                                    </g>
                                </g>
                            </g>
                        </g>
                    </g>
                </g>
            </g>
        </g>
    </g>
</svg>