<?xml version="1.0" encoding="UTF-8"?>
<svg width="408px" height="220px" viewBox="0 0 408 220" version="1.1" xmlns="http://www.w3.org/2000/svg" xmlns:xlink="http://www.w3.org/1999/xlink">
    <!-- Generator: Sketch 53.1 (72631) - https://sketchapp.com -->
    <title>coffee/fg</title>
    <desc>Created with Sketch.</desc>
    <g id="Page-1" stroke="none" stroke-width="1" fill="none" fill-rule="evenodd">
        <g id="Fuller-Page-Copy-8" transform="translate(-240.000000, -660.000000)">
            <g id="Group-6" transform="translate(180.000000, 659.000000)">
                <g id="Group-4">
                    <g id="Group">
                        <g id="Card">
                            <g id="Stoble-Coffee-Roasters---Illustration" transform="translate(59.000000, 0.000000)">
                                <g id="fg" transform="translate(0.796395, 1.000000)">
                                    <g id="cup" transform="translate(229.000000, 48.000000)">
                                        <g id="Group-9" transform="translate(0.000000, 124.358206)">
                                            <path d="M64.9710541,3.98097259 L72.2274496,3.98097259 C78.3626617,3.98097259 83.3436406,8.96892245 83.3436406,15.1126321 C83.3436406,21.2562915 78.3626617,26.2442414 72.2274496,26.2442414 C72.2274496,26.2442414 64.9710541,26.2442414 64.9710541,26.2442414 L64.9710541,3.98097259 Z M73.2569955,20.3040735 C76.1222977,20.3003627 78.4412797,17.9756047 78.4412797,15.1126321 C78.4412797,12.2473528 76.1182917,9.92114052 73.2569955,9.92114052 L67.263997,9.92114052 L67.263997,20.3040735 L73.2569955,20.3040735 Z" id="Fill-7" fill="#F0C466"></path>
                                            <path d="M64.8954406,0 C67.6605925,0 69.9029594,2.24507638 69.9029594,5.01452711 C69.9029594,7.96149388 69.9029594,11.1138577 69.9029594,11.1138577 C69.9029594,30.4312128 54.2414436,46.1144536 34.9514797,46.1144536 C15.661015,46.1144536 0,30.4312128 0,11.1138577 C0,11.1138577 0,7.96149388 0,5.01452711 C0,2.24507638 2.24186617,0 5.0075188,0 C17.8813489,0 52.0216105,0 64.8954406,0 Z" id="Fill-6" fill="#F0C466"></path>
                                            <path d="M46.6630647,0 L16.0240602,0 C13.2584075,0 11.0165414,2.24507638 11.0165414,5.01457726 C11.0165414,7.43621691 11.0165414,9.82476035 11.0165414,9.82476035 C11.0165414,26.9014519 24.910403,40.7655545 42.0230977,40.7655545 C49.3581113,40.7655545 56.1017368,38.2185504 61.4157158,33.9521983 C55.0100977,41.4015032 45.5258571,46.1144536 34.9514797,46.1144536 C15.661015,46.1144536 0,30.4312128 0,11.1138577 C0,11.1138577 0,7.96149388 0,5.01452711 C0,2.24507638 2.24186617,0 5.0075188,0 L46.6630647,0 Z" id="Fill-8" fill="#E2AC34"></path>
                                        </g>
                                        <path d="M25.6915759,111.073889 C22.1297278,106.589353 20.1943218,100.252933 19.1347308,94.196828 C17.8022301,86.5771778 17.578394,78.6305773 20.2218632,71.3549271 C21.4091459,68.08793 23.0931744,65.0385656 24.9454556,62.0629155" id="Stroke-12" stroke="#005561" stroke-linecap="round" stroke-linejoin="round"></path>
                                        <path d="M64.4317444,1.77635684e-14 C68.9039594,1.44419825 72.9039654,4.2608863 75.5684662,8.55186006 C80.2284632,16.055172 80.9380286,25.6841633 79.996615,33.5119184 C79.4262586,38.2532012 77.7958105,42.7954052 75.4713203,47.009656" id="Stroke-13" stroke="#005561" stroke-linecap="round" stroke-linejoin="round"></path>
                                        <path d="M58.5148602,80.1845948 C63.1122632,80.1845948 65.7717564,88.2786239 65.7717564,92.8830087 C65.7717564,97.4868921 60.3506165,99.7925948 55.7527128,99.7925948 C51.1553098,99.7925948 48.347594,95.626484 48.347594,91.0226006 C48.347594,83.9410146 53.9174571,80.1845948 58.5148602,80.1845948 Z" id="Fill-14" fill="#DBEAEE"></path>
                                    </g>
                                </g>
                            </g>
                        </g>
                    </g>
                </g>
            </g>
        </g>
    </g>
</svg>