<?xml version="1.0" encoding="UTF-8"?>
<svg width="409px" height="220px" viewBox="0 0 409 220" version="1.1" xmlns="http://www.w3.org/2000/svg" xmlns:xlink="http://www.w3.org/1999/xlink">
    <!-- Generator: Sketch 53.1 (72631) - https://sketchapp.com -->
    <title>coffee/mg</title>
    <desc>Created with Sketch.</desc>
    <defs>
        <path d="M3.0006078,5.33396247e-13 L94.0691815,7.54951657e-15 C95.7260357,-1.12753565e-16 97.0691815,1.34314575 97.0691815,3 C97.0691815,3.48625023 96.9509869,3.96521333 96.7247766,4.39564124 L68.4493617,58.1974724 C65.0301378,64.7034956 64.7805373,72.4175468 67.7720237,79.1309988 L93.49568,136.85967 C97.9914604,146.949037 93.4569621,158.772636 83.3675945,163.268416 C80.805591,164.410034 78.0321089,165 75.2272641,165 L21.8425252,165 C10.7968302,165 1.84252516,156.045695 1.84252516,145 C1.84252516,142.195155 2.43249107,139.421673 3.57410922,136.85967 L29.2977656,79.1309988 C32.289252,72.4175468 32.0396514,64.7034956 28.6204276,58.1974724 L0.345012658,4.39564124 C-0.425778714,2.92899654 0.13832186,1.11519624 1.60496656,0.344404863 C2.03539447,0.118194573 2.51435757,5.32479012e-13 3.0006078,5.29798427e-13 Z" id="path-1"></path>
        <filter x="-1.5%" y="-0.9%" width="103.1%" height="101.8%" filterUnits="objectBoundingBox" id="filter-3">
            <feOffset dx="0" dy="3" in="SourceAlpha" result="shadowOffsetInner1"></feOffset>
            <feComposite in="shadowOffsetInner1" in2="SourceAlpha" operator="arithmetic" k2="-1" k3="1" result="shadowInnerInner1"></feComposite>
            <feColorMatrix values="0 0 0 0 1   0 0 0 0 1   0 0 0 0 1  0 0 0 0.5 0" type="matrix" in="shadowInnerInner1"></feColorMatrix>
        </filter>
        <path d="M55.6743641,46 L10.0263659,46 C7.26494211,46 5.02636586,43.7614237 5.02636586,41 C5.02636586,40.2987888 5.17385734,39.6054183 5.45926188,38.9649174 L7.61323594,34.1309988 C10.6047223,27.4175468 10.3551218,19.7034956 6.93589792,13.1974724 L3.85019671,7.32606873 C2.56554442,4.88166091 3.50571204,1.85866039 5.95011987,0.574008106 C6.66749972,0.196990955 7.46577155,1.03704962e-15 8.2761886,8.8817842e-16 L57.4245413,-1.77635684e-15 C60.1859651,-2.28362215e-15 62.4245413,2.23857625 62.4245413,5 C62.4245413,5.81041705 62.2275504,6.60868888 61.8505332,7.32606873 L58.764832,13.1974724 C55.3456082,19.7034956 55.0960076,27.4175468 58.087494,34.1309988 L60.2414681,38.9649174 C61.3654131,41.4872593 60.2317886,44.4431589 57.7094467,45.567104 C57.0689458,45.8525085 56.3755753,46 55.6743641,46 Z" id="path-4"></path>
    </defs>
    <g id="Page-1" stroke="none" stroke-width="1" fill="none" fill-rule="evenodd">
        <g id="Fuller-Page-Copy-8" transform="translate(-240.000000, -660.000000)">
            <g id="Group-6" transform="translate(180.000000, 659.000000)">
                <g id="Group-4">
                    <g id="Group">
                        <g id="Card">
                            <g id="Stoble-Coffee-Roasters---Illustration" transform="translate(59.000000, 0.000000)">
                                <g id="mg" transform="translate(0.478451, 0.356350)">
                                    <path d="M265.203326,161.908408 C270.535332,161.908408 276.233889,158.973878 276.233889,154.175429 C276.233889,149.37698 272.122716,144.224 272.122716,138.924093 C272.122716,114.115475 306.069186,105.817353 306.069186,77.7633003 C306.069186,57.5269738 297.163815,51 286.309017,51 C275.454719,51 265.203326,58.4230787 265.203326,67.8765598 C265.203326,77.3295394 268.760167,80.3247464 268.760167,88.0602332 C268.760167,102.818636 251,112.92 251,131.300431 C251,149.680863 258.032559,161.908408 265.203326,161.908408 Z" id="Fill-11" fill="#DBEAEE"></path>
                                    <g id="Chemex" transform="translate(95.521549, 54.643650)">
                                        <g id="Group-12" transform="translate(-0.000000, -0.000000)">
                                            <mask id="mask-2" fill="white">
                                                <use xlink:href="#path-1"></use>
                                            </mask>
                                            <g id="Mask">
                                                <use fill-opacity="0.6" fill="#FFFFFF" fill-rule="evenodd" xlink:href="#path-1"></use>
                                                <use fill="black" fill-opacity="1" filter="url(#filter-3)" xlink:href="#path-1"></use>
                                            </g>
                                            <path d="M81.0691815,-3.54963988e-15 L84.0691815,-2.08721929e-14 C85.7260357,-2.8534463e-14 87.0691815,1.34314575 87.0691815,3 C87.0691815,3.48625023 86.9509869,3.96521333 86.7247766,4.39564124 L58.4493617,58.1974724 C55.0301378,64.7034956 54.7805373,72.4175468 57.7720237,79.1309988 L83.49568,136.85967 C87.9914604,146.949037 83.4569621,158.772636 73.3675945,163.268416 C70.805591,164.410034 68.0321089,165 65.2272641,165 L32.3578107,165 L52.8730961,165 C54.8863017,165 56.8879687,164.696035 58.8104172,164.098383 C69.3581626,160.819291 75.2505706,149.610424 71.9714788,139.062679 L52.9856056,77.9914536 C51.0962741,71.914104 51.6981644,65.3351673 54.6589036,59.7015384 L83.7247766,4.39564124 C83.9509869,3.96521333 84.0691815,3.48625023 84.0691815,3 C84.0691815,1.34314575 82.7260357,-3.25312659e-14 81.0691815,-2.48689958e-14 Z" id="Combined-Shape-Copy" fill="#FFFFFF" mask="url(#mask-2)"></path>
                                            <rect id="Rectangle" stroke="#9E7565" stroke-width="2" fill="#4F3328" mask="url(#mask-2)" x="-1" y="120" width="99" height="46"></rect>
                                            <path d="M81.0691815,-3.54963988e-15 L84.0691815,-2.08721929e-14 C85.7260357,-2.8534463e-14 87.0691815,1.34314575 87.0691815,3 C87.0691815,3.48625023 86.9509869,3.96521333 86.7247766,4.39564124 L58.4493617,58.1974724 C55.0301378,64.7034956 54.7805373,72.4175468 57.7720237,79.1309988 L83.49568,136.85967 C87.9914604,146.949037 83.4569621,158.772636 73.3675945,163.268416 C70.805591,164.410034 68.0321089,165 65.2272641,165 L32.3578107,165 L52.8730961,165 C54.8863017,165 56.8879687,164.696035 58.8104172,164.098383 C69.3581626,160.819291 75.2505706,149.610424 71.9714788,139.062679 L52.9856056,77.9914536 C51.0962741,71.914104 51.6981644,65.3351673 54.6589036,59.7015384 L83.7247766,4.39564124 C83.9509869,3.96521333 84.0691815,3.48625023 84.0691815,3 C84.0691815,1.34314575 82.7260357,-3.25312659e-14 81.0691815,-2.48689958e-14 Z" id="Combined-Shape" fill="#FFFFFF" opacity="0.300000012" mask="url(#mask-2)"></path>
                                        </g>
                                        <g id="Grip" transform="translate(15.649635, 45.000000)">
                                            <mask id="mask-5" fill="white">
                                                <use xlink:href="#path-4"></use>
                                            </mask>
                                            <use id="Mask" fill="#B95933" xlink:href="#path-4"></use>
                                            <path d="M66.6743641,46 L21.0263659,46 C18.2649421,46 16.0263659,43.7614237 16.0263659,41 C16.0263659,40.2987888 16.1738573,39.6054183 16.4592619,38.9649174 L18.6132359,34.1309988 C21.6047223,27.4175468 21.3551218,19.7034956 17.9358979,13.1974724 L14.8501967,7.32606873 C13.5655444,4.88166091 14.505712,1.85866039 16.9501199,0.574008106 C17.6674997,0.196990955 18.4657716,1.03704962e-15 19.2761886,8.8817842e-16 L68.4245413,-1.77635684e-15 C71.1859651,-2.28362215e-15 73.4245413,2.23857625 73.4245413,5 C73.4245413,5.81041705 73.2275504,6.60868888 72.8505332,7.32606873 L69.764832,13.1974724 C66.3456082,19.7034956 66.0960076,27.4175468 69.087494,34.1309988 L71.2414681,38.9649174 C72.3654131,41.4872593 71.2317886,44.4431589 68.7094467,45.567104 C68.0689458,45.8525085 67.3755753,46 66.6743641,46 Z" id="Mask-Copy" fill="#D46336" mask="url(#mask-5)"></path>
                                        </g>
                                        <rect id="Rectangle" fill="#004157" x="23" y="66" width="51" height="5" rx="1"></rect>
                                    </g>
                                </g>
                            </g>
                        </g>
                    </g>
                </g>
            </g>
        </g>
    </g>
</svg>