<?xml version="1.0" encoding="UTF-8"?>
<svg width="1440px" height="603px" viewBox="0 0 1440 603" version="1.1" xmlns="http://www.w3.org/2000/svg" xmlns:xlink="http://www.w3.org/1999/xlink">
    <!-- Generator: Sketch 53.1 (72631) - https://sketchapp.com -->
    <title>footer-shapes</title>
    <desc>Created with Sketch.</desc>
    <g id="Page-1" stroke="none" stroke-width="1" fill="none" fill-rule="evenodd" opacity="0.049999997">
        <g id="Fuller-Page-Copy-8" transform="translate(0.000000, -3066.000000)" fill="#FFFFFF">
            <g id="Group-Copy" transform="translate(0.000000, 3066.000000)">
                <g id="footer-shapes" transform="translate(-503.000000, -556.000000)">
                    <path d="M1704.93459,1170.05618 C1661.32141,1042.12306 1536.82471,1006.86284 1492.40602,876.566593 C1438.83099,719.41068 1523.61364,548.556223 1681.61721,495.271404 C1839.62116,441.982773 2011.39757,526.312289 2064.96992,683.46439 C2109.39129,813.764449 2032.79969,919.034365 2075.74188,1044.99693 C2118.68406,1170.96331 2243.851,1208.19027 2288.27236,1338.48652 C2341.84472,1495.64357 2257.06398,1666.49689 2099.06003,1719.78437 C1941.05608,1773.07186 1769.2812,1688.74425 1715.70616,1531.58872 C1671.28748,1401.29247 1748.54778,1297.98929 1704.93459,1170.05618 Z" id="Fill-1-Copy-2" transform="translate(1890.338631, 1107.527694) rotate(56.000000) translate(-1890.338631, -1107.527694) "></path>
                    <path d="M479.744764,673.674063 C442.452332,564.116803 335.998628,533.921235 298.017434,422.340274 C252.206898,287.757674 324.70221,141.44414 459.80671,95.8129616 C594.911537,50.1785191 741.792817,122.395245 787.601061,256.974581 C825.584548,368.558806 760.093178,458.708128 796.81186,566.577883 C833.530541,674.450903 940.55734,706.330712 978.540828,817.911673 C1024.34907,952.495252 951.855396,1098.80781 816.750569,1144.44127 C681.645742,1190.07473 534.765772,1117.85964 488.955235,983.277366 C450.974042,871.696405 517.037196,783.231324 479.744764,673.674063 Z" id="Fill-1-Copy-3" transform="translate(638.278650, 620.126949) rotate(131.000000) translate(-638.278650, -620.126949) "></path>
                    <circle id="Oval-Copy" cx="1890.81015" cy="622.810154" r="42.8101535"></circle>
                    <path d="M485.874558,1131.03988 C469.331511,1082.40567 422.108294,1069.00137 405.25971,1019.46881 C384.938003,959.725445 417.097165,894.774535 477.029971,874.518128 C536.962921,854.260271 602.119946,886.318427 622.440635,946.060339 C639.290236,995.594355 610.238047,1035.61308 626.526576,1083.49818 C642.815105,1131.38473 690.292549,1145.53669 707.142151,1195.06926 C727.46284,1254.81305 695.304405,1319.76353 635.371454,1340.02095 C575.438503,1360.27837 510.28206,1328.22094 489.960353,1268.47772 C473.11177,1218.94516 502.417604,1179.6741 485.874558,1131.03988 Z" id="Fill-1" transform="translate(556.200717, 1107.269464) scale(-1, 1) rotate(41.000000) translate(-556.200717, -1107.269464) "></path>
                    <circle id="Oval" cx="698.5" cy="1122.5" r="60.5"></circle>
                </g>
            </g>
        </g>
    </g>
</svg>