<?xml version="1.0" encoding="UTF-8"?>
<svg width="40px" height="46px" viewBox="0 0 40 46" version="1.1" xmlns="http://www.w3.org/2000/svg" xmlns:xlink="http://www.w3.org/1999/xlink">
    <!-- Generator: Sketch 53.1 (72631) - https://sketchapp.com -->
    <title>logo s</title>
    <desc>Created with Sketch.</desc>
    <g id="Page-1" stroke="none" stroke-width="1" fill="none" fill-rule="evenodd">
        <g id="Fuller-Page-Copy-8" transform="translate(-700.000000, -2928.000000)" fill="#004157">
            <path d="M711.148058,2952.59347 C710.649332,2953.49265 709.54457,2953.80089 708.680441,2953.28214 C707.81619,2952.76338 707.519917,2951.61385 708.018523,2950.7148 C710.565388,2946.12244 717.547437,2933.53287 720.094422,2928.94051 C720.593028,2928.04146 721.697789,2927.73309 722.56204,2928.25184 C723.14182,2928.59994 723.466034,2929.23184 723.466034,2929.88166 C723.466034,2943.90746 739.318692,2946.52592 740,2959.46209 C740,2969.43195 729.441357,2974 719.295689,2974 C708.750053,2974 700.00012,2967.40567 700,2959.57148 C700,2956.60041 702.318518,2954.1882 705.174301,2954.1882 C708.029965,2954.1882 710.348482,2956.60029 710.348482,2959.57148 C710.348482,2962.21399 709.278286,2963.04713 709.278286,2964.335 C709.278286,2966.67441 712.352661,2970.29241 718.380133,2970.29241 C722.370787,2970.29241 726.904127,2967.7069 726.904127,2963.97037 C726.904127,2958.21357 715.144975,2952.92803 715.132691,2945.40859 L711.148058,2952.59347 Z" id="logo-s"></path>
        </g>
    </g>
</svg>