<?xml version="1.0" encoding="UTF-8"?>
<svg width="110px" height="42px" viewBox="0 0 110 42" version="1.1" xmlns="http://www.w3.org/2000/svg" xmlns:xlink="http://www.w3.org/1999/xlink">
    <!-- Generator: Sketch 53.1 (72631) - https://sketchapp.com -->
    <title>logo</title>
    <desc>Created with Sketch.</desc>
    <g id="Page-1" stroke="none" stroke-width="1" fill="none" fill-rule="evenodd">
        <g id="Fuller-Page-Copy-8" transform="translate(-180.000000, -26.000000)">
            <g id="Group-7" transform="translate(180.000000, 26.000000)">
                <g id="logo" transform="translate(0.500000, 0.675040)">
                    <path d="M100.455315,28.5205103 C93.640685,28.5205103 89.5113013,24.4397592 89.5113013,18.9920038 C89.5113013,13.5441923 93.9992025,9.4634412 99.538606,9.4634412 C103.679735,9.4634412 107.687749,12.223253 108.636338,15.3931716 C108.798538,15.9255214 108.565306,16.4986747 108.078147,16.7664448 L98.6750318,21.9334447 C98.480392,22.0405191 98.251075,22.0657065 98.0374187,22.0035216 C97.8237624,21.9413367 97.644224,21.796817 97.5368365,21.6018105 C97.5368365,21.6018105 97.5368365,21.6017546 97.5368365,21.6017546 C97.4300083,21.4067481 97.4048394,21.1772069 97.4669228,20.9636177 C97.5290061,20.7500285 97.6733081,20.5699106 97.8685071,20.4628362 L101.957621,18.2165116 C102.275308,18.0420469 102.46827,17.7043118 102.458203,17.341837 C102.319494,14.8047939 100.818307,10.7073071 98.473121,11.1507174 C96.1089188,11.5978218 95.827586,16.2895633 96.3320833,19.7509842 C96.8360214,23.2123491 98.0748924,26.8643546 100.88039,26.8643546 C103.679176,26.8643546 105.107094,25.2482189 105.107094,24.2032215 C105.107094,23.6279412 104.610427,23.2557834 104.610427,22.0753897 L104.610427,22.0598854 C104.618816,20.7398416 105.692132,19.6707203 107.013221,19.6707203 C108.339344,19.6707203 109.416016,20.7481815 109.416016,22.0753897 C109.416016,25.5748715 105.352631,28.5205103 100.455315,28.5205103 Z M21.7602341,11.1363326 C21.7602341,11.1363326 21.1260888,11.1363326 20.5661638,11.1363326 C20.1028316,11.1363326 19.7271992,10.7604246 19.7271992,10.2967524 C19.7271992,10.2815281 19.7271992,10.2663037 19.7271992,10.2510793 C19.7271992,9.82322927 20.0486905,9.46383301 20.473654,9.41664861 C23.9856156,9.03626284 26.3273336,5.99737466 26.6928425,3.21741298 C26.7391533,2.79538404 27.0954336,2.47583986 27.519726,2.47583986 C27.5499287,2.46873141 27.5802992,2.46873141 27.6106138,2.46873141 C27.8331072,2.46873141 28.0464839,2.55716718 28.2038177,2.71461644 C28.3611515,2.87206569 28.4495784,3.0855989 28.4495784,3.30831152 L28.4495784,9.45868358 L31.9628824,9.45868358 C32.4179368,9.45868358 32.7898777,9.82205385 32.8008402,10.2773302 C32.8008402,10.2773302 32.8008402,10.2773861 32.8008402,10.2773861 C32.8062655,10.5032892 32.7203555,10.7218039 32.5626302,10.883451 C32.4049049,11.0451542 32.1886757,11.1363326 31.9628824,11.1363326 C30.7000729,11.1363326 28.4898487,11.1363326 28.4898487,11.1363326 L28.4432582,22.5296585 C28.4432582,24.4078552 29.3078391,25.2085907 30.3728767,25.2085907 C30.9207765,25.2085907 31.4902657,25.0368686 31.9461031,24.8394553 C32.139009,24.7551615 32.3613346,24.7736882 32.5375731,24.8888226 C32.7138116,25.0039571 32.8203042,25.2001389 32.8208076,25.4107616 C32.8219262,25.4108176 32.8219262,25.4108176 32.8219262,25.4108735 C32.8221499,25.4897941 32.8080553,25.5680989 32.7803695,25.6420379 C32.4662611,26.3807565 31.0210608,28.5205103 27.6878545,28.5205103 C24.1581627,28.5205103 21.7602341,26.1831193 21.7602341,21.9919354 L21.7602341,11.1363326 Z M43.6686284,9.45868358 C49.3917651,9.45868358 54.0382306,13.2622613 54.0382306,18.989597 C54.0382306,24.7169326 49.3917651,28.5205103 43.6686284,28.5205103 C37.9454916,28.5205103 33.2990262,24.7169326 33.2990262,18.989597 C33.2990262,13.2622613 37.9454916,9.45868358 43.6686284,9.45868358 Z M5.59321012,18.8777649 C5.36159996,19.27942 4.84854515,19.4171112 4.44724043,19.185387 C4.04587978,18.9536629 3.90828958,18.4401757 4.13984381,18.0385766 C5.32261607,15.9872025 8.56510231,10.3635271 9.74793051,8.31215299 C9.97948473,7.91055384 10.4925395,7.77280673 10.8939002,8.00453084 C11.1631519,8.16002107 11.3137181,8.4422879 11.3137181,8.73255873 L11.3137181,8.73255873 C11.3137181,14.9977854 18.6757441,16.1674324 18.9921456,21.9459264 C18.9921456,26.3993952 14.0886773,28.4399107 9.3769963,28.4399107 C4.47956853,28.4399107 0.416071556,25.4942718 0.416015625,21.99479 C0.416015625,20.6676377 1.49274277,19.5901206 2.81897797,19.5901206 C4.14515725,19.5901206 5.22188439,20.6675818 5.22188439,21.99479 C5.22188439,23.1751837 4.72488178,23.5473415 4.72488178,24.1226218 C4.72488178,25.1676192 6.1526317,26.7837549 8.95180905,26.7837549 C10.8050818,26.7837549 12.9103795,25.6288285 12.9103795,23.9597433 C12.9103795,21.3882214 7.44939128,19.0272102 7.44368632,15.66833 L5.59321012,18.8777649 Z M56.8063191,7.25803218 C56.8062631,6.65969142 56.4881837,6.10663202 55.9712697,5.80606234 C55.7610251,5.68387545 55.5425028,5.55687496 55.356812,5.44890496 C55.0621117,5.27757465 54.8807835,4.96222836 54.8807835,4.62119092 C54.8807835,4.62107897 54.8807835,4.621023 54.8807835,4.62091106 C54.8807835,4.27041435 55.0713403,3.94762378 55.3781217,3.77847638 C56.644343,3.0803935 60.0290617,1.21428679 62.0051029,0.124847638 C62.3166384,-0.0468185084 62.6952911,-0.0411093637 63.0017928,0.139848135 C63.3077353,0.320861607 63.4956633,0.650200897 63.4956633,1.00607092 L63.4956633,12.0928382 C63.4956633,12.0928382 65.4661115,9.4634412 69.0143723,9.4634412 C72.5620739,9.4634412 77.2860038,12.2470411 77.2860038,18.9920038 C77.2860038,25.7369105 73.6437789,28.4399107 66.8649451,28.4399107 C64.3804913,28.4399107 61.6907709,28.0978657 59.9977403,28.0978657 L54.8807835,28.0978657 C54.7323986,28.0978657 54.5901662,28.0388712 54.4852956,27.9339237 C54.3803691,27.8289202 54.3214738,27.6865834 54.3214738,27.5381456 C54.3214738,27.2883986 54.3214738,27.0014301 54.3214738,26.7805645 C54.3214738,26.5603147 54.4505065,26.3605506 54.6511869,26.2701558 C54.9098117,26.1536221 55.2862271,25.9840829 55.6522953,25.8191334 C56.3546205,25.5027236 56.8063191,24.8035773 56.8063191,24.0327868 L56.8063191,7.25803218 Z M80.0542601,21.2245032 L80.0542601,7.25803218 C80.0542601,6.65974739 79.7360128,6.10663202 79.2186514,5.80606234 C79.0089102,5.68387545 78.7902201,5.55687496 78.6045293,5.44890496 C78.3097731,5.27757465 78.1285567,4.96222836 78.1285567,4.62119092 C78.1285567,4.62107897 78.1285567,4.621023 78.1285567,4.62091106 C78.1285567,4.27041435 78.318722,3.94762378 78.6257831,3.77847638 C79.8920603,3.0803935 83.2770027,1.21428679 85.2530439,0.124847638 C85.5645794,-0.0468185084 85.9432321,-0.0411093637 86.2491745,0.139848135 C86.5556763,0.320861607 86.7436043,0.650200897 86.7436043,1.00607092 L86.7436043,21.2245032 C86.7436043,21.2245032 86.7436043,22.836553 86.7436043,24.0327868 C86.7436043,24.8035773 87.1949673,25.5027236 87.8974603,25.8191334 C88.2632488,25.9840829 88.6396643,26.1536221 88.8986247,26.2701558 C89.0994169,26.3605506 89.2280581,26.5603147 89.2280581,26.7805645 C89.2280581,27.0014301 89.2280581,27.2883986 89.2280581,27.5381456 C89.2280581,27.6865834 89.1693306,27.8289202 89.0641804,27.9339237 C88.9595894,28.0388712 88.8169655,28.0978657 88.6687484,28.0978657 L81.3194187,28.0978657 L78.1285567,28.0978657 C77.9803396,28.0978657 77.8377157,28.0388712 77.7331247,27.9339237 C77.6279745,27.8289202 77.569247,27.6865834 77.569247,27.5381456 C77.569247,27.2883986 77.569247,27.0014301 77.569247,26.7805645 C77.569247,26.5603147 77.6984475,26.3605506 77.8986804,26.2701558 C78.1576408,26.1536221 78.5340563,25.9840829 78.8998448,25.8191334 C79.6023378,25.5027236 80.0542601,24.8035773 80.0542601,24.0327868 L80.0542601,21.2245032 Z M43.6686284,11.1363326 C46.2312736,11.1363326 47.3488304,14.2703732 47.3488304,18.989597 C47.3488304,23.7088208 46.2144384,26.8429173 43.6686284,26.8429173 C41.1227624,26.8429173 39.9883704,23.7088208 39.9883704,18.989597 C39.9883704,14.2703732 41.1059831,11.1363326 43.6686284,11.1363326 Z M70.5966595,19.0097469 C70.5966595,23.7596434 69.1223191,26.7622617 66.9365367,26.7622617 C64.7507543,26.7622617 63.4956633,24.7123989 63.4956633,23.2122371 C63.4956633,21.7120754 63.4956633,17.6389924 63.4956633,15.7298992 C63.4956633,13.346947 65.3648764,11.9997567 66.9365367,11.9997567 C69.2129273,11.9997567 70.5966595,14.2598504 70.5966595,19.0097469 Z" id="Fill-1" fill="#004157"></path>
                    <path d="M5.173145,37.6645103 C5.4664798,37.7711775 5.69581084,37.9351759 5.861145,38.1565103 C6.02647916,38.3778448 6.109145,38.6485087 6.109145,38.9685103 C6.109145,39.2671785 6.0358124,39.5351758 5.889145,39.7725103 C5.7424776,40.0098449 5.53714632,40.193843 5.273145,40.3245103 C5.00914368,40.4551777 4.70914668,40.5205103 4.373145,40.5205103 L2.021145,40.5205103 L2.021145,35.2405103 L3.893145,35.2405103 C4.2131466,35.2405103 4.50114372,35.3031764 4.757145,35.4285103 C5.01314628,35.5538443 5.21181096,35.7271759 5.353145,35.9485103 C5.49447904,36.1698448 5.565145,36.4245089 5.565145,36.7125103 C5.565145,37.0965123 5.43447964,37.4138424 5.173145,37.6645103 Z M3.061145,36.1685103 L3.061145,37.3765103 L3.805145,37.3765103 C4.02381276,37.3765103 4.1931444,37.3218442 4.313145,37.2125103 C4.4331456,37.1031765 4.493145,36.9551779 4.493145,36.7685103 C4.493145,36.5818427 4.4331456,36.4351775 4.313145,36.3285103 C4.1931444,36.2218431 4.02381276,36.1685103 3.805145,36.1685103 L3.061145,36.1685103 Z M4.293145,39.5925103 C4.52781284,39.5925103 4.711811,39.5338443 4.845145,39.4165103 C4.978479,39.2991764 5.045145,39.1365114 5.045145,38.9285103 C5.045145,38.7258427 4.978479,38.5645109 4.845145,38.4445103 C4.711811,38.3245097 4.52781284,38.2645103 4.293145,38.2645103 L3.061145,38.2645103 L3.061145,39.5925103 L4.293145,39.5925103 Z M12.826859,36.2165103 L10.354859,36.2165103 L10.354859,37.2885103 L12.170859,37.2885103 L12.170859,38.2085103 L10.354859,38.2085103 L10.354859,39.5445103 L12.922859,39.5445103 L12.922859,40.5205103 L9.274859,40.5205103 L9.274859,35.2405103 L12.826859,35.2405103 L12.826859,36.2165103 Z M20.112573,36.2165103 L18.416573,36.2165103 L18.416573,40.5205103 L17.336573,40.5205103 L17.336573,36.2165103 L15.648573,36.2165103 L15.648573,35.2405103 L20.112573,35.2405103 L20.112573,36.2165103 Z M27.078287,36.2165103 L25.382287,36.2165103 L25.382287,40.5205103 L24.302287,40.5205103 L24.302287,36.2165103 L22.614287,36.2165103 L22.614287,35.2405103 L27.078287,35.2405103 L27.078287,36.2165103 Z M33.628001,36.2165103 L31.156001,36.2165103 L31.156001,37.2885103 L32.972001,37.2885103 L32.972001,38.2085103 L31.156001,38.2085103 L31.156001,39.5445103 L33.724001,39.5445103 L33.724001,40.5205103 L30.076001,40.5205103 L30.076001,35.2405103 L33.628001,35.2405103 L33.628001,36.2165103 Z M40.185715,40.5205103 L38.817715,38.6565103 L38.025715,38.6565103 L38.025715,40.5205103 L36.945715,40.5205103 L36.945715,35.2405103 L38.929715,35.2405103 C39.2977168,35.2405103 39.6257136,35.3111763 39.913715,35.4525103 C40.2017164,35.5938444 40.4270475,35.7938424 40.589715,36.0525103 C40.7523825,36.3111783 40.833715,36.6085087 40.833715,36.9445103 C40.833715,37.280512 40.7510492,37.5791757 40.585715,37.8405103 C40.4203808,38.101845 40.1937164,38.3045096 39.905715,38.4485103 L41.401715,40.5205103 L40.185715,40.5205103 Z M38.025715,37.7045103 L38.929715,37.7045103 C39.1803829,37.7045103 39.376381,37.6351777 39.517715,37.4965103 C39.659049,37.357843 39.729715,37.1738448 39.729715,36.9445103 C39.729715,36.7205092 39.6577157,36.5391777 39.513715,36.4005103 C39.3697143,36.261843 39.1750496,36.1925103 38.929715,36.1925103 L38.025715,36.1925103 L38.025715,37.7045103 Z M52.445143,36.2165103 L50.749143,36.2165103 L50.749143,40.5205103 L49.669143,40.5205103 L49.669143,36.2165103 L47.981143,36.2165103 L47.981143,35.2405103 L52.445143,35.2405103 L52.445143,36.2165103 Z M57.818857,35.1445103 C58.3308596,35.1445103 58.8015215,35.2645091 59.230857,35.5045103 C59.6601925,35.7445115 60.0015224,36.0738416 60.254857,36.4925103 C60.5081916,36.9111791 60.634857,37.3738411 60.634857,37.8805103 C60.634857,38.3871795 60.5081916,38.8498416 60.254857,39.2685103 C60.0015224,39.6871791 59.6601925,40.0165091 59.230857,40.2565103 C58.8015215,40.4965115 58.3308596,40.6165103 57.818857,40.6165103 C57.3068544,40.6165103 56.8375258,40.4965115 56.410857,40.2565103 C55.9841882,40.0165091 55.6455249,39.6871791 55.394857,39.2685103 C55.1441891,38.8498416 55.018857,38.3871795 55.018857,37.8805103 C55.018857,37.3738411 55.1441891,36.9111791 55.394857,36.4925103 C55.6455249,36.0738416 55.9841882,35.7445115 56.410857,35.5045103 C56.8375258,35.2645091 57.3068544,35.1445103 57.818857,35.1445103 Z M57.826857,36.1445103 C57.501522,36.1445103 57.2108583,36.2178429 56.954857,36.3645103 C56.6988557,36.5111777 56.4975244,36.716509 56.350857,36.9805103 C56.2041896,37.2445117 56.130857,37.5445087 56.130857,37.8805103 C56.130857,38.216512 56.2041896,38.516509 56.350857,38.7805103 C56.4975244,39.0445117 56.6988557,39.2498429 56.954857,39.3965103 C57.2108583,39.5431777 57.501522,39.6165103 57.826857,39.6165103 C58.1468586,39.6165103 58.436189,39.5431777 58.694857,39.3965103 C58.953525,39.2498429 59.1561896,39.0445117 59.302857,38.7805103 C59.4495244,38.516509 59.522857,38.216512 59.522857,37.8805103 C59.522857,37.549842 59.4495244,37.2525117 59.302857,36.9885103 C59.1561896,36.724509 58.953525,36.5178444 58.694857,36.3685103 C58.436189,36.2191763 58.1468586,36.1445103 57.826857,36.1445103 Z M66.352571,35.1445103 C66.8165733,35.1445103 67.2392358,35.2445093 67.620571,35.4445103 C68.0019062,35.6445113 68.3205697,35.9258419 68.576571,36.2885103 L67.808571,36.9205103 C67.4352358,36.4031744 66.944574,36.1445103 66.336571,36.1445103 C66.0005693,36.1445103 65.7045723,36.2191763 65.448571,36.3685103 C65.1925697,36.5178444 64.993905,36.7231757 64.852571,36.9845103 C64.711237,37.245845 64.640571,37.5445087 64.640571,37.8805103 C64.640571,38.2218454 64.7139036,38.5258423 64.860571,38.7925103 C65.0072384,39.0591783 65.213903,39.2685096 65.480571,39.4205103 C65.747239,39.5725111 66.0539026,39.6485103 66.400571,39.6485103 C66.7045725,39.6485103 66.9752365,39.5898443 67.212571,39.4725103 C67.4499055,39.3551764 67.6432369,39.195178 67.792571,38.9925103 L67.792571,38.5605103 L66.336571,38.5605103 L66.336571,37.6245103 L68.872571,37.6245103 L68.872571,39.1845103 C68.6325698,39.6111791 68.2899066,39.956509 67.844571,40.2205103 C67.3992354,40.4845117 66.9019071,40.6165103 66.352571,40.6165103 C65.8299017,40.6165103 65.3539065,40.4965115 64.924571,40.2565103 C64.4952355,40.0165091 64.1552389,39.6871791 63.904571,39.2685103 C63.6539031,38.8498416 63.528571,38.3871795 63.528571,37.8805103 C63.528571,37.3685078 63.6525698,36.9045124 63.900571,36.4885103 C64.1485722,36.0725083 64.4885688,35.7445115 64.920571,35.5045103 C65.3525732,35.2645091 65.8299017,35.1445103 66.352571,35.1445103 Z M75.646285,36.2165103 L73.174285,36.2165103 L73.174285,37.2885103 L74.990285,37.2885103 L74.990285,38.2085103 L73.174285,38.2085103 L73.174285,39.5445103 L75.742285,39.5445103 L75.742285,40.5205103 L72.094285,40.5205103 L72.094285,35.2405103 L75.646285,35.2405103 L75.646285,36.2165103 Z M82.931999,36.2165103 L81.235999,36.2165103 L81.235999,40.5205103 L80.155999,40.5205103 L80.155999,36.2165103 L78.467999,36.2165103 L78.467999,35.2405103 L82.931999,35.2405103 L82.931999,36.2165103 Z M90.425713,40.5205103 L89.345713,40.5205103 L89.345713,38.2405103 L87.009713,38.2405103 L87.009713,40.5205103 L85.929713,40.5205103 L85.929713,35.2405103 L87.009713,35.2405103 L87.009713,37.2645103 L89.345713,37.2645103 L89.345713,35.2405103 L90.425713,35.2405103 L90.425713,40.5205103 Z M97.471427,36.2165103 L94.999427,36.2165103 L94.999427,37.2885103 L96.815427,37.2885103 L96.815427,38.2085103 L94.999427,38.2085103 L94.999427,39.5445103 L97.567427,39.5445103 L97.567427,40.5205103 L93.919427,40.5205103 L93.919427,35.2405103 L97.471427,35.2405103 L97.471427,36.2165103 Z M104.029141,40.5205103 L102.661141,38.6565103 L101.869141,38.6565103 L101.869141,40.5205103 L100.789141,40.5205103 L100.789141,35.2405103 L102.773141,35.2405103 C103.141143,35.2405103 103.46914,35.3111763 103.757141,35.4525103 C104.045142,35.5938444 104.270474,35.7938424 104.433141,36.0525103 C104.595808,36.3111783 104.677141,36.6085087 104.677141,36.9445103 C104.677141,37.280512 104.594475,37.5791757 104.429141,37.8405103 C104.263807,38.101845 104.037142,38.3045096 103.749141,38.4485103 L105.245141,40.5205103 L104.029141,40.5205103 Z M101.869141,37.7045103 L102.773141,37.7045103 C103.023809,37.7045103 103.219807,37.6351777 103.361141,37.4965103 C103.502475,37.357843 103.573141,37.1738448 103.573141,36.9445103 C103.573141,36.7205092 103.501142,36.5391777 103.357141,36.4005103 C103.21314,36.261843 103.018476,36.1925103 102.773141,36.1925103 L101.869141,36.1925103 L101.869141,37.7045103 Z" id="BETTERTOGETHER" fill="#000000" fill-rule="nonzero"></path>
                </g>
            </g>
        </g>
    </g>
</svg>