<?xml version="1.0" encoding="UTF-8"?>
<svg width="435px" height="285px" viewBox="0 0 435 285" version="1.1" xmlns="http://www.w3.org/2000/svg" xmlns:xlink="http://www.w3.org/1999/xlink">
    <!-- Generator: Sketch 53.1 (72631) - https://sketchapp.com -->
    <title>hero/shapes 3</title>
    <desc>Created with Sketch.</desc>
    <g id="Page-1" stroke="none" stroke-width="1" fill="none" fill-rule="evenodd" opacity="0.400000006">
        <g id="Fuller-Page-Copy-8" transform="translate(-180.000000, -97.000000)" fill="#DEE7EA">
            <g id="Mission" transform="translate(180.000000, 97.000000)">
                <g id="hero-shapes" transform="translate(-365.000000, -392.000000)">
                    <g id="hero/shapes-3" transform="translate(0.698623, 0.270007)">
                        <path d="M327.471944,460.32262 C302.007206,385.625406 229.316433,365.037772 203.381382,288.960779 C172.100147,197.201044 221.602795,97.4430422 313.857457,66.3312575 C406.112342,35.2172474 506.408652,84.4553186 537.688321,176.212829 C563.624939,252.292047 518.904858,313.756738 543.977817,387.303395 C569.050776,460.852277 642.13288,482.588243 668.069497,558.665235 C699.349166,650.425639 649.847636,750.182972 557.592751,781.296315 C465.337866,812.409657 365.04245,763.172699 333.761215,671.413186 C307.826164,595.336193 352.936682,535.019834 327.471944,460.32262 Z" id="Fill-1-Copy-3" transform="translate(435.725111, 423.813672) rotate(131.000000) translate(-435.725111, -423.813672) "></path>
                    </g>
                </g>
            </g>
        </g>
    </g>
</svg>