<?xml version="1.0" encoding="UTF-8"?>
<svg width="408px" height="220px" viewBox="0 0 408 220" version="1.1" xmlns="http://www.w3.org/2000/svg" xmlns:xlink="http://www.w3.org/1999/xlink">
    <!-- Generator: Sketch 53.1 (72631) - https://sketchapp.com -->
    <title>workplace/bg</title>
    <desc>Created with Sketch.</desc>
    <g id="Page-1" stroke="none" stroke-width="1" fill="none" fill-rule="evenodd">
        <g id="Fuller-Page-Copy-8" transform="translate(-792.000000, -660.000000)">
            <g id="Group-6" transform="translate(180.000000, 659.000000)">
                <g id="Group-4">
                    <g id="Group">
                        <g id="Card-Copy" transform="translate(552.000000, 0.000000)">
                            <g id="stoble-workplace" transform="translate(60.000000, 0.000000)">
                                <g id="workplace-bg" transform="translate(0.000000, 0.395242)">
                                    <g id="ground" transform="translate(25.000000, 219.604758)" stroke="#002D33" stroke-linecap="round" stroke-linejoin="round">
                                        <path d="M264,0.5 L0.313586466,0.5" id="Stroke-9"></path>
                                        <path d="M331.397351,0.5 L270.5,0.5" id="Stroke-9-Copy-2"></path>
                                        <path d="M358,0.5 L338.102649,0.5" id="Stroke-9-Copy-3"></path>
                                    </g>
                                    <g id="Bricks" transform="translate(0.000000, 93.999000)">
                                        <g id="Bricks-1">
                                            <path d="M24,0.80595914 C24,0.143761872 23.464786,-0.394241983 22.8055528,-0.394241983 L1.19444717,-0.394241983 C0.535214028,-0.394241983 -1.71063164e-12,0.143761872 -1.71063164e-12,0.80595914 L-1.71063164e-12,10.4060597 C-1.71063164e-12,11.068257 0.535214028,11.605758 1.19444717,11.605758 L22.8055528,11.605758 C23.464786,11.605758 24,11.068257 24,10.4060597 L24,0.80595914 Z" id="Fill-2" fill="#E3EBEE"></path>
                                            <path d="M24,28.8059591 C24,28.1437619 23.464786,27.605758 22.8055528,27.605758 L1.19444717,27.605758 C0.535214028,27.605758 0,28.1437619 0,28.8059591 L0,38.4060597 C0,39.068257 0.535214028,39.605758 1.19444717,39.605758 L22.8055528,39.605758 C23.464786,39.605758 24,39.068257 24,38.4060597 L24,28.8059591 Z" id="Fill-3" fill="#EBF1F3"></path>
                                            <path d="M37,15.8054563 C37,15.1432591 36.464786,14.605758 35.8055528,14.605758 L14.1944472,14.605758 C13.535214,14.605758 13,15.1432591 13,15.8054563 L13,25.4055569 C13,26.0677542 13.535214,26.605758 14.1944472,26.605758 L35.8055528,26.605758 C36.464786,26.605758 37,26.0677542 37,25.4055569 L37,15.8054563 Z" id="Fill-4" fill="#EBF1F3"></path>
                                        </g>
                                        <g id="Bricks-2" transform="translate(118.651500, 59.500500)" fill="#EBF1F3">
                                            <path d="M24.3485,15.3049563 C24.3485,14.6427591 23.8134761,14.105258 23.1543307,14.105258 L1.54266929,14.105258 C0.883523878,14.105258 0.3485,14.6427591 0.3485,15.3049563 L0.3485,24.9050569 C0.3485,25.5672542 0.883523878,26.105258 1.54266929,26.105258 L23.1543307,26.105258 C23.8134761,26.105258 24.3485,25.5672542 24.3485,24.9050569 L24.3485,15.3049563 Z" id="Fill-5"></path>
                                            <path d="M37.3485,1.30545914 C37.3485,0.643261872 36.8134761,0.105258017 36.1543307,0.105258017 L14.5426693,0.105258017 C13.8835239,0.105258017 13.3485,0.643261872 13.3485,1.30545914 L13.3485,10.9055597 C13.3485,11.567757 13.8835239,12.105258 14.5426693,12.105258 L36.1543307,12.105258 C36.8134761,12.105258 37.3485,11.567757 37.3485,10.9055597 L37.3485,1.30545914 Z" id="Fill-6"></path>
                                        </g>
                                        <g id="Bricks-3" transform="translate(370.000000, 0.000000)" fill="#EBF1F3">
                                            <path d="M24,15.8054563 C24,15.1432591 23.4649873,14.605758 22.8058556,14.605758 L1.19464487,14.605758 C0.5355132,14.605758 -5.13367127e-13,15.1432591 -5.13367127e-13,15.8054563 L-5.13367127e-13,25.4055569 C-5.13367127e-13,26.0677542 0.5355132,26.605758 1.19464487,26.605758 L22.8058556,26.605758 C23.4649873,26.605758 24,26.0677542 24,25.4055569 L24,15.8054563 Z" id="Fill-7"></path>
                                            <path d="M37,0.80595914 C37,0.143761872 36.4649873,-0.394241983 35.8058556,-0.394241983 L14.1946449,-0.394241983 C13.5355132,-0.394241983 13,0.143761872 13,0.80595914 L13,10.4060597 C13,11.068257 13.5355132,11.605758 14.1946449,11.605758 L35.8058556,11.605758 C36.4649873,11.605758 37,11.068257 37,10.4060597 L37,0.80595914 Z" id="Fill-8"></path>
                                        </g>
                                    </g>
                                    <g id="Window" transform="translate(126.000000, 16.000000)">
                                        <rect id="Rectangle" fill="#FFFFFF" x="5" y="4.60475802" width="47" height="47"></rect>
                                        <rect id="Rectangle-Copy-4" fill="#FFFFFF" x="5" y="54.604758" width="47" height="47"></rect>
                                        <polygon id="Path" fill="#E0EDED" fill-rule="nonzero" transform="translate(10.995892, 88.097570) rotate(-180.000000) translate(-10.995892, -88.097570) " points="19.9917847 71.604758 19.9917847 103.840381 20.9917847 105.590381 20.9917847 70.604758 1 70.604758 1.57142857 71.604758"></polygon>
                                        <polygon id="Path" fill="#E0EDED" fill-rule="nonzero" transform="translate(9.856665, 5.748093) rotate(-90.000000) translate(-9.856665, -5.748093) " points="13.8566651 -2.25190707 5.41222065 -2.25190707 4.85666509 -3.25190707 14.8566651 -3.25190707 14.8566651 14.7480929 13.8566651 12.9480929"></polygon>
                                        <path d="M69.5,0.604758017 L122.674805,0.604758017" id="Line" stroke="#E0EDED" stroke-linecap="square"></path>
                                        <path d="M155.5,46.104758 L155.5,68.3315863" id="Line-Copy" stroke="#E0EDED" stroke-linecap="square"></path>
                                        <rect id="Rectangle-Copy-3" fill="#FFFFFF" x="55" y="4.60475802" width="47" height="47"></rect>
                                        <rect id="Rectangle-Copy-6" fill="#FFFFFF" x="105" y="4.60475802" width="47" height="47"></rect>
                                        <rect id="Rectangle-Copy-5" fill="#FFFFFF" x="55" y="54.604758" width="47" height="47"></rect>
                                        <rect id="Rectangle-Copy-7" fill="#FFFFFF" x="105" y="54.604758" width="47" height="47"></rect>
                                    </g>
                                </g>
                            </g>
                        </g>
                    </g>
                </g>
            </g>
        </g>
    </g>
</svg>