<?xml version="1.0" encoding="UTF-8"?>
<svg width="408px" height="220px" viewBox="0 0 408 220" version="1.1" xmlns="http://www.w3.org/2000/svg" xmlns:xlink="http://www.w3.org/1999/xlink">
    <!-- Generator: Sketch 53.1 (72631) - https://sketchapp.com -->
    <title>workplace/fg</title>
    <desc>Created with Sketch.</desc>
    <defs>
        <path d="M26.2075,2.2195 L19.562,0.4385 C19.562,0.4385 3.0095,68.7548 0.4145,79.4647 C0.2255,80.24615 0.694,81.0359 1.4705,81.244 C1.471,81.24405 1.471,81.2441 1.471,81.24415 C2.2495,81.4527 3.052,81.0022 3.279,80.2292 C6.3895,69.6473 26.2075,2.2195 26.2075,2.2195 Z" id="path-1"></path>
        <path d="M0.3055,2.2195 L6.951,0.4385 C6.951,0.4385 23.5035,68.7548 26.0985,79.4647 C26.2875,80.24615 25.819,81.0359 25.0425,81.244 C25.042,81.24405 25.042,81.2441 25.0415,81.24415 C24.2635,81.4527 23.461,81.0022 23.234,80.2292 C20.1235,69.6473 0.3055,2.2195 0.3055,2.2195 Z" id="path-3"></path>
        <path d="M231.3155,2.305 C231.556,1.8215 231.5295,1.248 231.2455,0.789 C230.961,0.3295 230.4595,0.05 229.9195,0.05 C206.37,0.05 25.1425,0.05 1.5935,0.05 C1.0535,0.05 0.5515,0.3295 0.2675,0.789 C-0.017,1.248 -0.0435,1.8215 0.1975,2.305 C0.7255,3.365 1.324,4.5665 1.717,5.355 C1.981,5.8845 2.5215,6.219 3.113,6.219 C18.5055,6.219 213.0075,6.219 228.4,6.219 C228.9915,6.219 229.532,5.8845 229.7955,5.355 C230.189,4.5665 230.787,3.365 231.3155,2.305 Z" id="path-5"></path>
    </defs>
    <g id="Page-1" stroke="none" stroke-width="1" fill="none" fill-rule="evenodd">
        <g id="Fuller-Page-Copy-8" transform="translate(-792.000000, -660.000000)">
            <g id="Group-6" transform="translate(180.000000, 659.000000)">
                <g id="Group-4">
                    <g id="Group">
                        <g id="Card-Copy" transform="translate(552.000000, 0.000000)">
                            <g id="stoble-workplace" transform="translate(60.000000, 0.000000)">
                                <g id="workplace-fg" transform="translate(0.000000, 0.111742)">
                                    <g id="table" transform="translate(92.000000, 133.855000)">
                                        <path d="M26.2075,6.1695 L19.562,4.3885 C19.562,4.3885 3.0095,72.7048 0.4145,83.4147 C0.2255,84.19615 0.694,84.9859 1.4705,85.194 C1.471,85.19405 1.471,85.1941 1.471,85.19415 C2.2495,85.4027 3.052,84.9522 3.279,84.1792 C6.3895,73.5973 26.2075,6.1695 26.2075,6.1695 Z" id="Fill-9" fill="#F0C466"></path>
                                        <g id="Group-13" transform="translate(0.000000, 3.950000)">
                                            <mask id="mask-2" fill="white">
                                                <use xlink:href="#path-1"></use>
                                            </mask>
                                            <g id="Clip-11"></g>
                                            <circle id="Oval" fill="#CD961D" mask="url(#mask-2)" cx="23" cy="-4" r="11"></circle>
                                            <path d="M7.3845,72.4315 L0.739,70.65085 C0.739,70.65085 0.26,77.00035 0.039,79.92475 C-0.024,80.76185 0.5175,81.5254 1.3285,81.7427 C1.3285,81.7427 1.3285,81.74275 1.3285,81.74275 C2.1395,81.96005 2.99,81.5695 3.354,80.81295 C4.625,78.1699 7.3845,72.4315 7.3845,72.4315 Z" id="Fill-12" fill="#FFFFFF" mask="url(#mask-2)"></path>
                                        </g>
                                        <path d="M207.3055,6.1695 L213.951,4.3885 C213.951,4.3885 230.5035,72.7048 233.0985,83.4147 C233.2875,84.19615 232.819,84.9859 232.0425,85.194 C232.042,85.19405 232.042,85.1941 232.0415,85.19415 C231.2635,85.4027 230.461,84.9522 230.234,84.1792 C227.1235,73.5973 207.3055,6.1695 207.3055,6.1695 Z" id="Fill-14" fill="#F0C466"></path>
                                        <g id="Group-18" transform="translate(207.000000, 3.950000)">
                                            <mask id="mask-4" fill="white">
                                                <use xlink:href="#path-3"></use>
                                            </mask>
                                            <g id="Clip-16"></g>
                                            <circle id="Oval" fill="#CD961D" mask="url(#mask-4)" cx="2" cy="-3.91674198" r="11"></circle>
                                            <path d="M25.6295,70.65095 L18.984,72.43155 C18.984,72.43155 21.744,78.17 23.015,80.81295 C23.379,81.56945 24.2295,81.96 25.0405,81.74275 C25.0405,81.7427 25.0405,81.7427 25.0405,81.74265 C25.8515,81.5254 26.393,80.7618 26.3295,79.9247 C26.109,77.00025 25.6295,70.65095 25.6295,70.65095 Z" id="Fill-17" fill="#FFFFFF" mask="url(#mask-4)"></path>
                                        </g>
                                        <path d="M232.3155,2.255 C232.556,1.7715 232.5295,1.198 232.2455,0.739 C231.961,0.2795 231.4595,-6.39488462e-14 230.9195,-6.39488462e-14 C207.37,-6.39488462e-14 26.1425,-6.39488462e-14 2.5935,-6.39488462e-14 C2.0535,-6.39488462e-14 1.5515,0.2795 1.2675,0.739 C0.983,1.198 0.9565,1.7715 1.1975,2.255 C1.7255,3.315 2.324,4.5165 2.717,5.305 C2.981,5.8345 3.5215,6.169 4.113,6.169 C19.5055,6.169 214.0075,6.169 229.4,6.169 C229.9915,6.169 230.532,5.8345 230.7955,5.305 C231.189,4.5165 231.787,3.315 232.3155,2.255 Z" id="Fill-19" fill="#E2AC34"></path>
                                        <g id="Group-22" transform="translate(1.000000, 0.428500)">
                                            <mask id="mask-6" fill="white">
                                                <use xlink:href="#path-5"></use>
                                            </mask>
                                            <g id="Clip-21"></g>
                                            <path d="M231.32,1.1725 C231.32,0.553 230.817,0.05 230.1975,0.05 L1.315,0.05 C0.6955,0.05 0.1925,0.553 0.1925,1.1725 C0.1925,1.792 0.6955,2.295 1.315,2.295 L230.1975,2.295 C230.817,2.295 231.32,1.792 231.32,1.1725 Z" id="Fill-20" fill="#F0C466" mask="url(#mask-6)"></path>
                                        </g>
                                    </g>
                                    <g id="clock" transform="translate(260.323000, 116.000000)">
                                        <path d="M34.0715,3.571 C34.0715,1.6 32.4715,8.8817842e-15 30.5005,8.8817842e-15 L3.571,8.8817842e-15 C1.6005,8.8817842e-15 2.73203682e-12,1.6 2.73203682e-12,3.571 L2.73203682e-12,14.284 C2.73203682e-12,16.255 1.6005,17.855 3.571,17.855 L30.5005,17.855 C32.4715,17.855 34.0715,16.255 34.0715,14.284 L34.0715,3.571 Z" id="Fill-39" fill="#242424"></path>
                                        <path d="M30.5465,8.8817842e-15 L30.5925,0.001 L30.6385,0.0025 L30.684,0.0045 L30.7295,0.007 L30.775,0.0105 L30.8205,0.014 L30.8655,0.0185 L30.9105,0.023 L30.955,0.0285 L30.9995,0.0345 L31.044,0.041 L31.088,0.048 L31.1325,0.0555 L31.176,0.064 L31.22,0.0725 L31.2635,0.0815 L31.3065,0.0915 L31.3495,0.1015 L31.3925,0.1125 L31.435,0.1235 L31.4775,0.1355 L31.52,0.1475 L31.562,0.1605 L31.6035,0.174 L31.6455,0.1875 L31.6865,0.202 L31.728,0.2165 L31.7685,0.232 L31.8095,0.2475 L31.85,0.264 L31.89,0.2805 L31.93,0.298 L31.9695,0.3155 L32.009,0.3335 L32.048,0.352 L32.087,0.3715 L32.1255,0.391 L32.164,0.4105 L32.202,0.431 L32.24,0.452 L32.2775,0.4735 L32.3145,0.495 L32.3515,0.517 L32.3885,0.54 L32.4245,0.563 L32.4605,0.586 L32.4965,0.61 L32.532,0.6345 L32.567,0.659 L32.602,0.684 L32.6365,0.7095 L32.6705,0.7355 L32.7045,0.762 L32.738,0.7885 L32.7715,0.816 L32.8045,0.843 L32.837,0.871 L32.869,0.8995 L32.901,0.928 L32.9325,0.957 L32.964,0.9865 L32.9945,1.016 L33.025,1.0465 L33.055,1.077 L33.085,1.1075 L33.1145,1.139 L33.1435,1.1705 L33.172,1.202 L33.2005,1.2345 L33.228,1.267 L33.2555,1.3 L33.2825,1.333 L33.3095,1.367 L33.336,1.4005 L33.3615,1.435 L33.387,1.4695 L33.4125,1.5045 L33.437,1.5395 L33.4615,1.575 L33.485,1.6105 L33.5085,1.647 L33.5315,1.683 L33.554,1.72 L33.5765,1.757 L33.598,1.794 L33.6195,1.8315 L33.64,1.8695 L33.6605,1.9075 L33.6805,1.946 L33.7,1.9845 L33.719,2.0235 L33.7375,2.0625 L33.756,2.102 L33.7735,2.1415 L33.7905,2.1815 L33.8075,2.2215 L33.8235,2.262 L33.8395,2.3025 L33.8545,2.3435 L33.8695,2.3845 L33.884,2.426 L33.8975,2.4675 L33.911,2.5095 L33.9235,2.5515 L33.936,2.594 L33.9475,2.636 L33.959,2.679 L33.97,2.722 L33.98,2.765 L33.9895,2.808 L33.999,2.8515 L34.0075,2.8955 L34.0155,2.939 L34.0235,2.983 L34.0305,3.0275 L34.037,3.072 L34.043,3.1165 L34.048,3.161 L34.053,3.206 L34.0575,3.251 L34.061,3.2965 L34.0645,3.3415 L34.067,3.3875 L34.069,3.433 L34.0705,3.479 L34.071,3.525 L34.0715,3.571 L34.0715,14.284 L34.071,14.33 L34.0705,14.376 L34.069,14.422 L34.067,14.468 L34.0645,14.5135 L34.061,14.5585 L34.0575,14.604 L34.053,14.649 L34.048,14.694 L34.043,14.7385 L34.037,14.783 L34.0305,14.8275 L34.0235,14.872 L34.0155,14.916 L34.0075,14.9595 L33.999,15.0035 L33.9895,15.047 L33.98,15.09 L33.97,15.133 L33.959,15.176 L33.9475,15.219 L33.936,15.2615 L33.9235,15.3035 L33.911,15.3455 L33.8975,15.3875 L33.884,15.429 L33.8695,15.4705 L33.8545,15.5115 L33.8395,15.5525 L33.8235,15.593 L33.8075,15.6335 L33.7905,15.6735 L33.7735,15.7135 L33.756,15.753 L33.7375,15.7925 L33.719,15.8315 L33.7,15.8705 L33.6805,15.909 L33.6605,15.9475 L33.64,15.9855 L33.6195,16.0235 L33.598,16.061 L33.5765,16.0985 L33.554,16.135 L33.5315,16.172 L33.5085,16.2085 L33.485,16.2445 L33.4615,16.28 L33.437,16.3155 L33.4125,16.351 L33.387,16.3855 L33.3615,16.42 L33.336,16.4545 L33.3095,16.4885 L33.2825,16.522 L33.2555,16.555 L33.228,16.588 L33.2005,16.6205 L33.172,16.653 L33.1435,16.6845 L33.1145,16.716 L33.085,16.7475 L33.055,16.778 L33.025,16.8085 L32.9945,16.839 L32.964,16.8685 L32.9325,16.898 L32.901,16.927 L32.869,16.9555 L32.837,16.984 L32.8045,17.012 L32.7715,17.0395 L32.738,17.0665 L32.7045,17.093 L32.6705,17.1195 L32.6365,17.1455 L32.602,17.171 L32.567,17.196 L32.532,17.2205 L32.4965,17.245 L32.4605,17.269 L32.4245,17.292 L32.3885,17.3155 L32.3515,17.338 L32.3145,17.36 L32.2775,17.3815 L32.24,17.403 L32.202,17.424 L32.164,17.4445 L32.1255,17.464 L32.087,17.4835 L32.048,17.503 L32.009,17.5215 L31.9695,17.5395 L31.93,17.557 L31.89,17.5745 L31.85,17.591 L31.8095,17.6075 L31.7685,17.623 L31.728,17.6385 L31.6865,17.653 L31.6455,17.6675 L31.6035,17.681 L31.562,17.6945 L31.52,17.7075 L31.4775,17.7195 L31.435,17.7315 L31.3925,17.7425 L31.3495,17.7535 L31.3065,17.7635 L31.2635,17.7735 L31.22,17.7825 L31.176,17.791 L31.1325,17.7995 L31.088,17.807 L31.044,17.814 L30.9995,17.8205 L30.955,17.8265 L30.9105,17.832 L30.8655,17.8365 L30.8205,17.841 L30.775,17.8445 L30.7295,17.848 L30.684,17.8505 L30.6385,17.8525 L30.5925,17.854 L30.5465,17.855 L30.5005,17.855 L3.571,17.855 L3.525,17.855 L3.479,17.854 L3.4335,17.8525 L3.3875,17.8505 L3.342,17.848 L3.2965,17.8445 L3.2515,17.841 L3.2065,17.8365 L3.1615,17.832 L3.1165,17.8265 L3.072,17.8205 L3.0275,17.814 L2.9835,17.807 L2.9395,17.7995 L2.8955,17.791 L2.852,17.7825 L2.8085,17.7735 L2.765,17.7635 L2.722,17.7535 L2.679,17.7425 L2.6365,17.7315 L2.594,17.7195 L2.552,17.7075 L2.51,17.6945 L2.468,17.681 L2.4265,17.6675 L2.385,17.653 L2.344,17.6385 L2.303,17.623 L2.2625,17.6075 L2.222,17.591 L2.182,17.5745 L2.142,17.557 L2.102,17.5395 L2.063,17.5215 L2.0235,17.503 L1.9845,17.4835 L1.946,17.464 L1.9075,17.4445 L1.8695,17.424 L1.832,17.403 L1.7945,17.3815 L1.757,17.36 L1.72,17.338 L1.6835,17.3155 L1.647,17.292 L1.611,17.269 L1.575,17.245 L1.5395,17.2205 L1.5045,17.196 L1.4695,17.171 L1.435,17.1455 L1.401,17.1195 L1.367,17.093 L1.3335,17.0665 L1.3005,17.0395 L1.2675,17.012 L1.235,16.984 L1.2025,16.9555 L1.1705,16.927 L1.139,16.898 L1.108,16.8685 L1.077,16.839 L1.0465,16.8085 L1.0165,16.778 L0.987,16.7475 L0.9575,16.716 L0.9285,16.6845 L0.8995,16.653 L0.8715,16.6205 L0.8435,16.588 L0.816,16.555 L0.789,16.522 L0.7625,16.4885 L0.736,16.4545 L0.71,16.42 L0.6845,16.3855 L0.6595,16.351 L0.6345,16.3155 L0.6105,16.28 L0.5865,16.2445 L0.563,16.2085 L0.54,16.172 L0.5175,16.135 L0.4955,16.0985 L0.4735,16.061 L0.4525,16.0235 L0.4315,15.9855 L0.411,15.9475 L0.391,15.909 L0.3715,15.8705 L0.3525,15.8315 L0.334,15.7925 L0.316,15.753 L0.298,15.7135 L0.281,15.6735 L0.2645,15.6335 L0.248,15.593 L0.2325,15.5525 L0.217,15.5115 L0.202,15.4705 L0.188,15.429 L0.174,15.3875 L0.161,15.3455 L0.148,15.3035 L0.136,15.2615 L0.124,15.219 L0.1125,15.176 L0.102,15.133 L0.0915,15.09 L0.082,15.047 L0.073,15.0035 L0.064,14.9595 L0.056,14.916 L0.0485,14.872 L0.0415,14.8275 L0.035,14.783 L0.029,14.7385 L0.0235,14.694 L0.0185,14.649 L0.0145,14.604 L0.0105,14.5585 L0.0075,14.5135 L0.005,14.468 L0.003,14.422 L0.0015,14.376 L0.000500000003,14.33 L2.73203682e-12,14.284 L2.73203682e-12,3.571 L0.000500000003,3.525 L0.0015,3.479 L0.003,3.433 L0.005,3.3875 L0.0075,3.3415 L0.0105,3.2965 L0.0145,3.251 L0.0185,3.206 L0.0235,3.161 L0.029,3.1165 L0.035,3.072 L0.0415,3.0275 L0.0485,2.983 L0.056,2.939 L0.064,2.8955 L0.073,2.8515 L0.082,2.808 L0.0915,2.765 L0.102,2.722 L0.1125,2.679 L0.124,2.636 L0.136,2.594 L0.148,2.5515 L0.161,2.5095 L0.174,2.4675 L0.188,2.426 L0.202,2.3845 L0.217,2.3435 L0.2325,2.3025 L0.248,2.262 L0.2645,2.2215 L0.281,2.1815 L0.298,2.1415 L0.316,2.102 L0.334,2.0625 L0.3525,2.0235 L0.3715,1.9845 L0.391,1.946 L0.411,1.9075 L0.4315,1.8695 L0.4525,1.8315 L0.4735,1.794 L0.4955,1.757 L0.5175,1.72 L0.54,1.683 L0.563,1.647 L0.5865,1.6105 L0.6105,1.575 L0.6345,1.5395 L0.6595,1.5045 L0.6845,1.4695 L0.71,1.435 L0.736,1.4005 L0.7625,1.367 L0.789,1.333 L0.816,1.3 L0.8435,1.267 L0.8715,1.2345 L0.8995,1.202 L0.9285,1.1705 L0.9575,1.139 L0.987,1.1075 L1.0165,1.077 L1.0465,1.0465 L1.077,1.016 L1.108,0.9865 L1.139,0.957 L1.1705,0.928 L1.2025,0.8995 L1.235,0.871 L1.2675,0.843 L1.3005,0.816 L1.3335,0.7885 L1.367,0.762 L1.401,0.7355 L1.435,0.7095 L1.4695,0.684 L1.5045,0.659 L1.5395,0.6345 L1.575,0.61 L1.611,0.586 L1.647,0.563 L1.6835,0.54 L1.72,0.517 L1.757,0.495 L1.7945,0.4735 L1.832,0.452 L1.8695,0.431 L1.9075,0.4105 L1.946,0.391 L1.9845,0.3715 L2.0235,0.352 L2.063,0.3335 L2.102,0.3155 L2.142,0.298 L2.182,0.2805 L2.222,0.264 L2.2625,0.2475 L2.303,0.232 L2.344,0.2165 L2.385,0.202 L2.4265,0.1875 L2.468,0.174 L2.51,0.1605 L2.552,0.1475 L2.594,0.1355 L2.6365,0.1235 L2.679,0.1125 L2.722,0.1015 L2.765,0.0915 L2.8085,0.0815 L2.852,0.0725 L2.8955,0.064 L2.9395,0.0555 L2.9835,0.048 L3.0275,0.041 L3.072,0.0345 L3.1165,0.0285 L3.1615,0.023 L3.2065,0.0185 L3.2515,0.014 L3.2965,0.0105 L3.342,0.007 L3.3875,0.0045 L3.4335,0.0025 L3.479,0.001 L3.525,8.8817842e-15 L3.571,8.8817842e-15 L30.5005,8.8817842e-15 L30.5465,8.8817842e-15 Z M3.578,1.9605 L3.55,1.9605 L3.529,1.961 L3.5085,1.9615 L3.486,1.9625 L3.466,1.9635 L3.446,1.965 L3.4265,1.9665 L3.405,1.969 L3.3835,1.971 L3.3645,1.9735 L3.344,1.976 L3.3235,1.979 L3.3055,1.982 L3.285,1.9855 L3.2635,1.9895 L3.2465,1.993 L3.227,1.997 L3.2055,2.002 L3.187,2.006 L3.168,2.011 L3.1505,2.0155 L3.13,2.0215 L3.1095,2.0275 L3.092,2.0325 L3.075,2.038 L3.0555,2.0445 L3.0365,2.051 L3.018,2.0575 L2.9995,2.0645 L2.9825,2.071 L2.965,2.0785 L2.9455,2.0865 L2.928,2.094 L2.91,2.102 L2.893,2.1095 L2.8765,2.1175 L2.8575,2.127 L2.8395,2.136 L2.823,2.1445 L2.807,2.153 L2.789,2.163 L2.772,2.1725 L2.7545,2.183 L2.7385,2.1925 L2.721,2.203 L2.704,2.214 L2.69,2.223 L2.6745,2.2335 L2.6575,2.245 L2.6395,2.258 L2.624,2.269 L2.612,2.278 L2.5945,2.291 L2.578,2.304 L2.5635,2.3155 L2.5475,2.3285 L2.533,2.3405 L2.519,2.3525 L2.505,2.365 L2.4885,2.3795 L2.4745,2.3925 L2.4625,2.404 L2.4465,2.4195 L2.433,2.4325 L2.4185,2.447 L2.4045,2.462 L2.394,2.473 L2.38,2.488 L2.365,2.5045 L2.354,2.5175 L2.3405,2.533 L2.3275,2.5485 L2.316,2.563 L2.304,2.578 L2.2915,2.594 L2.2795,2.61 L2.269,2.624 L2.257,2.6405 L2.2455,2.657 L2.235,2.6725 L2.2235,2.69 L2.213,2.7055 L2.2035,2.721 L2.193,2.738 L2.183,2.7545 L2.173,2.772 L2.163,2.7895 L2.1535,2.8065 L2.145,2.8225 L2.1365,2.839 L2.1275,2.8565 L2.118,2.876 L2.1095,2.8935 L2.102,2.9095 L2.0945,2.927 L2.0865,2.945 L2.0785,2.9645 L2.0715,2.9825 L2.065,2.999 L2.058,3.018 L2.0515,3.036 L2.045,3.0555 L2.0385,3.075 L2.033,3.0915 L2.0275,3.11 L2.0215,3.13 L2.016,3.1495 L2.0115,3.1675 L2.0065,3.187 L2.002,3.2055 L1.9975,3.2265 L1.993,3.246 L1.99,3.263 L1.986,3.285 L1.9825,3.305 L1.9795,3.3235 L1.9765,3.3435 L1.9735,3.3645 L1.9715,3.383 L1.969,3.4045 L1.967,3.426 L1.9655,3.4435 L1.964,3.4655 L1.963,3.488 L1.962,3.508 L1.961,3.529 L1.961,3.55 L1.9605,3.5775 L1.9605,14.2775 L1.961,14.3055 L1.961,14.326 L1.962,14.347 L1.963,14.367 L1.964,14.3895 L1.9655,14.412 L1.967,14.429 L1.969,14.4505 L1.9715,14.472 L1.9735,14.4905 L1.9765,14.5115 L1.9795,14.532 L1.9825,14.55 L1.986,14.5695 L1.99,14.592 L1.9935,14.6095 L1.9975,14.628 L2.002,14.6495 L2.0065,14.669 L2.011,14.6865 L2.016,14.705 L2.022,14.726 L2.0275,14.746 L2.0325,14.763 L2.0385,14.78 L2.045,14.7995 L2.0515,14.819 L2.0585,14.838 L2.065,14.856 L2.071,14.872 L2.0785,14.8905 L2.087,14.911 L2.094,14.9275 L2.102,14.9445 L2.11,14.9625 L2.118,14.979 L2.127,14.9975 L2.1365,15.016 L2.145,15.0325 L2.1535,15.0485 L2.1635,15.0665 L2.1735,15.084 L2.183,15.1005 L2.193,15.117 L2.2035,15.134 L2.213,15.1495 L2.2235,15.1655 L2.235,15.1825 L2.2455,15.198 L2.2565,15.2135 L2.269,15.231 L2.28,15.246 L2.2905,15.26 L2.304,15.277 L2.317,15.2935 L2.3275,15.3065 L2.3405,15.322 L2.354,15.3375 L2.365,15.3505 L2.379,15.366 L2.3925,15.3805 L2.4055,15.3945 L2.4185,15.408 L2.433,15.4225 L2.4465,15.4355 L2.461,15.4495 L2.476,15.464 L2.4895,15.4765 L2.5035,15.489 L2.5175,15.5015 L2.533,15.5145 L2.549,15.5275 L2.565,15.5405 L2.578,15.5515 L2.593,15.5625 L2.6105,15.576 L2.6255,15.5875 L2.641,15.5985 L2.6575,15.61 L2.673,15.6205 L2.6885,15.631 L2.706,15.642 L2.723,15.653 L2.7385,15.6625 L2.7545,15.6725 L2.772,15.6825 L2.789,15.692 L2.805,15.701 L2.823,15.7105 L2.841,15.72 L2.8575,15.7285 L2.8745,15.7365 L2.893,15.7455 L2.91,15.753 L2.928,15.761 L2.9475,15.7695 L2.963,15.776 L2.9805,15.783 L3.0015,15.791 L3.0205,15.798 L3.0365,15.804 L3.0535,15.81 L3.073,15.8165 L3.094,15.823 L3.112,15.8285 L3.13,15.834 L3.1505,15.8395 L3.168,15.844 L3.187,15.849 L3.2055,15.8535 L3.2245,15.8575 L3.2465,15.862 L3.2655,15.866 L3.283,15.869 L3.3055,15.873 L3.326,15.8765 L3.344,15.879 L3.3625,15.8815 L3.3835,15.884 L3.405,15.886 L3.424,15.888 L3.446,15.89 L3.468,15.8915 L3.488,15.8925 L3.506,15.8935 L3.529,15.894 L3.55,15.8945 L3.576,15.8945 L30.496,15.8945 L30.5215,15.8945 L30.5425,15.894 L30.5655,15.8935 L30.5835,15.8925 L30.6035,15.8915 L30.6255,15.89 L30.6475,15.888 L30.667,15.886 L30.688,15.884 L30.7095,15.8815 L30.728,15.879 L30.746,15.8765 L30.7665,15.873 L30.789,15.869 L30.806,15.866 L30.8255,15.862 L30.847,15.8575 L30.866,15.8535 L30.8845,15.849 L30.9035,15.844 L30.9215,15.8395 L30.9415,15.834 L30.96,15.8285 L30.9775,15.823 L30.999,15.8165 L31.018,15.81 L31.0355,15.804 L31.0515,15.798 L31.0705,15.791 L31.0905,15.7835 L31.109,15.776 L31.125,15.769 L31.1435,15.761 L31.1615,15.753 L31.1785,15.7455 L31.1975,15.7365 L31.214,15.7285 L31.2305,15.72 L31.249,15.7105 L31.266,15.7015 L31.283,15.692 L31.3005,15.682 L31.317,15.6725 L31.3335,15.6625 L31.3485,15.653 L31.366,15.642 L31.3835,15.631 L31.399,15.6205 L31.4145,15.61 L31.4295,15.599 L31.446,15.5875 L31.4625,15.575 L31.479,15.5625 L31.4935,15.5515 L31.507,15.5405 L31.523,15.5275 L31.5385,15.5145 L31.554,15.5015 L31.568,15.489 L31.581,15.4775 L31.596,15.464 L31.612,15.4485 L31.6255,15.4355 L31.6385,15.4225 L31.653,15.408 L31.666,15.3945 L31.679,15.3805 L31.693,15.366 L31.7065,15.3505 L31.718,15.3375 L31.731,15.322 L31.744,15.3065 L31.755,15.2935 L31.7675,15.277 L31.781,15.26 L31.7915,15.246 L31.8025,15.231 L31.8155,15.2135 L31.826,15.198 L31.837,15.1825 L31.8485,15.1655 L31.8585,15.1495 L31.8685,15.134 L31.879,15.117 L31.8885,15.1005 L31.8985,15.084 L31.9085,15.0665 L31.918,15.0485 L31.927,15.0325 L31.9355,15.016 L31.9445,14.9975 L31.9535,14.979 L31.9615,14.9625 L31.97,14.9445 L31.9775,14.9275 L31.9845,14.911 L31.9925,14.8925 L31.9995,14.874 L32.0075,14.854 L32.014,14.836 L32.0205,14.819 L32.027,14.7995 L32.0335,14.78 L32.039,14.763 L32.044,14.746 L32.05,14.726 L32.0555,14.705 L32.0605,14.6865 L32.065,14.669 L32.0695,14.6495 L32.0745,14.628 L32.0785,14.6095 L32.082,14.592 L32.086,14.5695 L32.0895,14.55 L32.0925,14.532 L32.095,14.5115 L32.098,14.4905 L32.1005,14.472 L32.1025,14.4505 L32.1045,14.429 L32.106,14.412 L32.1075,14.3895 L32.109,14.367 L32.11,14.347 L32.1105,14.326 L32.111,14.3075 L32.111,14.2795 L32.111,3.5755 L32.111,3.5475 L32.1105,3.529 L32.11,3.508 L32.109,3.488 L32.1075,3.4655 L32.106,3.4435 L32.1045,3.426 L32.1025,3.4045 L32.1005,3.383 L32.098,3.3645 L32.095,3.3435 L32.0925,3.3235 L32.0895,3.305 L32.086,3.285 L32.082,3.263 L32.0785,3.246 L32.0745,3.2265 L32.0695,3.2055 L32.065,3.187 L32.0605,3.1675 L32.0555,3.1495 L32.05,3.13 L32.0445,3.11 L32.039,3.0915 L32.0335,3.075 L32.027,3.0555 L32.0205,3.036 L32.0145,3.02 L32.0075,3.001 L31.9995,2.9805 L31.9925,2.9625 L31.985,2.945 L31.977,2.927 L31.9695,2.9095 L31.962,2.8935 L31.9535,2.876 L31.944,2.8565 L31.9355,2.839 L31.927,2.8225 L31.918,2.8065 L31.909,2.7895 L31.899,2.772 L31.8885,2.7545 L31.879,2.738 L31.8685,2.721 L31.8585,2.7055 L31.8485,2.69 L31.837,2.6725 L31.826,2.657 L31.8145,2.6405 L31.8025,2.624 L31.7925,2.61 L31.78,2.594 L31.7675,2.578 L31.756,2.563 L31.744,2.5485 L31.731,2.533 L31.718,2.5175 L31.7065,2.5045 L31.6915,2.488 L31.678,2.473 L31.6675,2.462 L31.653,2.447 L31.6385,2.4325 L31.6255,2.4195 L31.6105,2.405 L31.597,2.3925 L31.582,2.3785 L31.567,2.365 L31.5525,2.3525 L31.5385,2.3405 L31.5245,2.3285 L31.5085,2.3155 L31.4935,2.304 L31.4775,2.291 L31.461,2.2785 L31.4475,2.269 L31.4315,2.257 L31.4145,2.245 L31.3975,2.2335 L31.3815,2.223 L31.3675,2.214 L31.3505,2.203 L31.3335,2.1925 L31.317,2.183 L31.3005,2.173 L31.283,2.163 L31.264,2.1525 L31.249,2.1445 L31.2325,2.136 L31.214,2.127 L31.1955,2.1175 L31.1785,2.1095 L31.1615,2.102 L31.1435,2.094 L31.127,2.087 L31.1065,2.0785 L31.088,2.071 L31.0725,2.0645 L31.0535,2.0575 L31.0355,2.051 L31.016,2.0445 L30.9965,2.038 L30.98,2.0325 L30.962,2.0275 L30.9415,2.0215 L30.9215,2.0155 L30.9035,2.011 L30.8845,2.006 L30.866,2.002 L30.845,1.997 L30.8255,1.993 L30.8085,1.9895 L30.7865,1.9855 L30.7665,1.982 L30.748,1.979 L30.728,1.976 L30.707,1.9735 L30.688,1.971 L30.667,1.969 L30.6455,1.9665 L30.6255,1.965 L30.606,1.9635 L30.586,1.9625 L30.5635,1.9615 L30.5425,1.961 L30.5215,1.9605 L30.4935,1.9605 L3.578,1.9605 Z" id="Fill-40" fill="#000000"></path>
                                        <path d="M17.847,3.5695 C17.847,1.5995 16.2475,-1.42108547e-14 14.2775,-1.42108547e-14 L3.5695,-1.42108547e-14 C1.5995,-1.42108547e-14 -2.87236901e-12,1.5995 -2.87236901e-12,3.5695 L-2.87236901e-12,14.2775 C-2.87236901e-12,16.2475 1.5995,17.847 3.5695,17.847 L14.2775,17.847 C16.2475,17.847 17.847,16.2475 17.847,14.2775 L17.847,3.5695 Z" id="Fill-41" fill="#162629"></path>
                                        <path d="M14.324,-1.42108547e-14 L14.37,0.001 L14.4155,0.0025 L14.4615,0.0045 L14.507,0.007 L14.552,0.0105 L14.5975,0.014 L14.6425,0.0185 L14.6875,0.023 L14.732,0.0285 L14.7765,0.0345 L14.821,0.041 L14.865,0.048 L14.909,0.0555 L14.953,0.064 L14.9965,0.0725 L15.04,0.0815 L15.0835,0.0915 L15.1265,0.1015 L15.1695,0.1125 L15.212,0.1235 L15.2545,0.1355 L15.2965,0.1475 L15.3385,0.1605 L15.3805,0.174 L15.422,0.1875 L15.4635,0.202 L15.5045,0.2165 L15.5455,0.232 L15.586,0.2475 L15.6265,0.264 L15.6665,0.2805 L15.7065,0.2975 L15.746,0.3155 L15.7855,0.3335 L15.8245,0.352 L15.8635,0.371 L15.902,0.3905 L15.9405,0.4105 L15.9785,0.431 L16.0165,0.452 L16.054,0.473 L16.091,0.495 L16.128,0.517 L16.1645,0.5395 L16.201,0.5625 L16.237,0.586 L16.273,0.61 L16.3085,0.634 L16.3435,0.659 L16.3785,0.684 L16.413,0.7095 L16.447,0.7355 L16.481,0.7615 L16.5145,0.7885 L16.5475,0.8155 L16.5805,0.843 L16.613,0.8705 L16.6455,0.899 L16.677,0.9275 L16.7085,0.9565 L16.74,0.986 L16.7705,1.0155 L16.801,1.046 L16.8315,1.0765 L16.861,1.107 L16.8905,1.1385 L16.9195,1.17 L16.948,1.2015 L16.9765,1.234 L17.004,1.2665 L17.0315,1.2995 L17.0585,1.3325 L17.0855,1.366 L17.1115,1.4 L17.1375,1.434 L17.163,1.4685 L17.188,1.5035 L17.213,1.5385 L17.237,1.574 L17.261,1.61 L17.2845,1.646 L17.3075,1.6825 L17.33,1.719 L17.352,1.756 L17.374,1.793 L17.395,1.8305 L17.416,1.8685 L17.4365,1.9065 L17.4565,1.945 L17.476,1.9835 L17.495,2.0225 L17.5135,2.0615 L17.5315,2.101 L17.5495,2.1405 L17.5665,2.1805 L17.583,2.2205 L17.5995,2.261 L17.615,2.3015 L17.6305,2.3425 L17.645,2.3835 L17.6595,2.425 L17.6735,2.4665 L17.6865,2.5085 L17.6995,2.5505 L17.7115,2.5925 L17.7235,2.635 L17.7345,2.6775 L17.7455,2.7205 L17.7555,2.7635 L17.7655,2.807 L17.7745,2.8505 L17.783,2.894 L17.7915,2.938 L17.799,2.982 L17.806,3.026 L17.8125,3.0705 L17.8185,3.115 L17.824,3.1595 L17.8285,3.2045 L17.833,3.2495 L17.8365,3.295 L17.84,3.34 L17.8425,3.3855 L17.8445,3.4315 L17.846,3.477 L17.847,3.523 L17.847,3.5695 L17.847,14.2775 L17.847,14.3235 L17.846,14.3695 L17.8445,14.4155 L17.8425,14.461 L17.84,14.5065 L17.8365,14.552 L17.833,14.597 L17.8285,14.642 L17.824,14.687 L17.8185,14.732 L17.8125,14.7765 L17.806,14.8205 L17.799,14.865 L17.7915,14.909 L17.783,14.953 L17.7745,14.9965 L17.7655,15.04 L17.7555,15.083 L17.7455,15.126 L17.7345,15.169 L17.7235,15.2115 L17.7115,15.254 L17.6995,15.2965 L17.6865,15.3385 L17.6735,15.38 L17.6595,15.4215 L17.645,15.463 L17.6305,15.504 L17.615,15.545 L17.5995,15.5855 L17.583,15.626 L17.5665,15.666 L17.5495,15.706 L17.5315,15.746 L17.5135,15.785 L17.495,15.8245 L17.476,15.863 L17.4565,15.902 L17.4365,15.94 L17.416,15.978 L17.395,16.016 L17.374,16.0535 L17.352,16.091 L17.33,16.1275 L17.3075,16.1645 L17.2845,16.2005 L17.261,16.237 L17.237,16.2725 L17.213,16.308 L17.188,16.343 L17.163,16.378 L17.1375,16.4125 L17.1115,16.4465 L17.0855,16.4805 L17.0585,16.514 L17.0315,16.5475 L17.004,16.58 L16.9765,16.613 L16.948,16.645 L16.9195,16.677 L16.8905,16.7085 L16.861,16.7395 L16.8315,16.7705 L16.801,16.801 L16.7705,16.831 L16.74,16.8605 L16.7085,16.89 L16.677,16.919 L16.6455,16.9475 L16.613,16.976 L16.5805,17.004 L16.5475,17.0315 L16.5145,17.0585 L16.481,17.085 L16.447,17.1115 L16.413,17.1375 L16.3785,17.163 L16.3435,17.188 L16.3085,17.2125 L16.273,17.237 L16.237,17.2605 L16.201,17.284 L16.1645,17.307 L16.128,17.33 L16.091,17.352 L16.054,17.3735 L16.0165,17.395 L15.9785,17.4155 L15.9405,17.436 L15.902,17.456 L15.8635,17.4755 L15.8245,17.4945 L15.7855,17.513 L15.746,17.5315 L15.7065,17.549 L15.6665,17.566 L15.6265,17.583 L15.586,17.599 L15.5455,17.615 L15.5045,17.63 L15.4635,17.645 L15.422,17.659 L15.3805,17.673 L15.3385,17.686 L15.2965,17.699 L15.2545,17.7115 L15.212,17.723 L15.1695,17.7345 L15.1265,17.745 L15.0835,17.7555 L15.04,17.765 L14.9965,17.774 L14.953,17.783 L14.909,17.791 L14.865,17.7985 L14.821,17.8055 L14.7765,17.812 L14.732,17.818 L14.6875,17.8235 L14.6425,17.8285 L14.5975,17.8325 L14.552,17.8365 L14.507,17.8395 L14.4615,17.842 L14.4155,17.844 L14.37,17.8455 L14.324,17.8465 L14.2775,17.847 L3.5695,17.847 L3.5235,17.8465 L3.4775,17.8455 L3.4315,17.844 L3.386,17.842 L3.3405,17.8395 L3.295,17.8365 L3.25,17.8325 L3.205,17.8285 L3.16,17.8235 L3.115,17.818 L3.0705,17.812 L3.0265,17.8055 L2.982,17.7985 L2.938,17.791 L2.894,17.783 L2.8505,17.774 L2.807,17.765 L2.764,17.7555 L2.721,17.745 L2.678,17.7345 L2.6355,17.723 L2.593,17.7115 L2.5505,17.699 L2.5085,17.686 L2.467,17.673 L2.4255,17.659 L2.384,17.645 L2.343,17.63 L2.302,17.615 L2.2615,17.599 L2.221,17.583 L2.181,17.566 L2.141,17.549 L2.101,17.5315 L2.062,17.513 L2.0225,17.4945 L1.984,17.4755 L1.945,17.456 L1.907,17.436 L1.869,17.4155 L1.831,17.395 L1.7935,17.3735 L1.7565,17.352 L1.7195,17.33 L1.6825,17.307 L1.6465,17.284 L1.61,17.2605 L1.5745,17.237 L1.539,17.2125 L1.504,17.188 L1.469,17.163 L1.4345,17.1375 L1.4005,17.1115 L1.3665,17.085 L1.333,17.0585 L1.2995,17.0315 L1.267,17.004 L1.234,16.976 L1.202,16.9475 L1.17,16.919 L1.1385,16.89 L1.1075,16.8605 L1.0765,16.831 L1.046,16.801 L1.016,16.7705 L0.9865,16.7395 L0.957,16.7085 L0.928,16.677 L0.8995,16.645 L0.871,16.613 L0.843,16.58 L0.8155,16.5475 L0.7885,16.514 L0.762,16.4805 L0.7355,16.4465 L0.7095,16.4125 L0.684,16.378 L0.659,16.343 L0.6345,16.308 L0.61,16.2725 L0.5865,16.237 L0.563,16.2005 L0.54,16.1645 L0.5175,16.1275 L0.495,16.091 L0.4735,16.0535 L0.452,16.016 L0.4315,15.978 L0.411,15.94 L0.391,15.902 L0.3715,15.863 L0.3525,15.8245 L0.334,15.785 L0.3155,15.746 L0.298,15.706 L0.281,15.666 L0.264,15.626 L0.248,15.5855 L0.232,15.545 L0.217,15.504 L0.202,15.463 L0.188,15.4215 L0.174,15.38 L0.161,15.3385 L0.148,15.2965 L0.1355,15.254 L0.124,15.2115 L0.1125,15.169 L0.102,15.126 L0.0915,15.083 L0.082,15.04 L0.073,14.9965 L0.064,14.953 L0.056,14.909 L0.0485,14.865 L0.0415,14.8205 L0.035,14.7765 L0.029,14.732 L0.0235,14.687 L0.0185,14.642 L0.0145,14.597 L0.0105,14.552 L0.0075,14.5065 L0.005,14.461 L0.003,14.4155 L0.0015,14.3695 L0.000499999997,14.3235 L-2.87236901e-12,14.2775 L-2.87236901e-12,3.5695 L0.000499999997,3.523 L0.0015,3.477 L0.003,3.4315 L0.005,3.3855 L0.0075,3.34 L0.0105,3.295 L0.0145,3.2495 L0.0185,3.2045 L0.0235,3.1595 L0.029,3.115 L0.035,3.0705 L0.0415,3.026 L0.0485,2.982 L0.056,2.938 L0.064,2.894 L0.073,2.8505 L0.082,2.807 L0.0915,2.7635 L0.102,2.7205 L0.1125,2.6775 L0.124,2.635 L0.1355,2.5925 L0.148,2.5505 L0.161,2.5085 L0.174,2.4665 L0.188,2.425 L0.202,2.3835 L0.217,2.3425 L0.232,2.3015 L0.248,2.261 L0.264,2.2205 L0.281,2.1805 L0.298,2.1405 L0.3155,2.101 L0.334,2.0615 L0.3525,2.0225 L0.3715,1.9835 L0.391,1.945 L0.411,1.9065 L0.4315,1.8685 L0.452,1.8305 L0.4735,1.793 L0.495,1.756 L0.5175,1.719 L0.54,1.6825 L0.563,1.646 L0.5865,1.61 L0.61,1.574 L0.6345,1.5385 L0.659,1.5035 L0.684,1.4685 L0.7095,1.434 L0.7355,1.4 L0.762,1.366 L0.7885,1.3325 L0.8155,1.2995 L0.843,1.2665 L0.871,1.234 L0.8995,1.2015 L0.928,1.17 L0.957,1.1385 L0.9865,1.107 L1.016,1.0765 L1.046,1.046 L1.0765,1.0155 L1.1075,0.986 L1.1385,0.9565 L1.17,0.9275 L1.202,0.899 L1.234,0.8705 L1.267,0.843 L1.2995,0.8155 L1.333,0.7885 L1.3665,0.7615 L1.4005,0.7355 L1.4345,0.7095 L1.469,0.684 L1.504,0.659 L1.539,0.634 L1.5745,0.61 L1.61,0.586 L1.6465,0.5625 L1.6825,0.5395 L1.7195,0.517 L1.7565,0.495 L1.7935,0.473 L1.831,0.452 L1.869,0.431 L1.907,0.4105 L1.945,0.3905 L1.984,0.371 L2.0225,0.352 L2.062,0.3335 L2.101,0.3155 L2.141,0.2975 L2.181,0.2805 L2.221,0.264 L2.2615,0.2475 L2.302,0.232 L2.343,0.2165 L2.384,0.202 L2.4255,0.1875 L2.467,0.174 L2.5085,0.1605 L2.5505,0.1475 L2.593,0.1355 L2.6355,0.1235 L2.678,0.1125 L2.721,0.1015 L2.764,0.0915 L2.807,0.0815 L2.8505,0.0725 L2.894,0.064 L2.938,0.0555 L2.982,0.048 L3.0265,0.041 L3.0705,0.0345 L3.115,0.0285 L3.16,0.023 L3.205,0.0185 L3.25,0.014 L3.295,0.0105 L3.3405,0.007 L3.386,0.0045 L3.4315,0.0025 L3.4775,0.001 L3.5235,-1.42108547e-14 L3.5695,-1.42108547e-14 L14.2775,-1.42108547e-14 L14.324,-1.42108547e-14 Z M3.5755,1.622 L3.545,1.622 L3.519,1.6225 L3.493,1.6235 L3.467,1.6245 L3.444,1.626 L3.4185,1.6275 L3.3935,1.63 L3.369,1.632 L3.3445,1.635 L3.32,1.6375 L3.2945,1.641 L3.2725,1.6445 L3.249,1.648 L3.222,1.653 L3.1985,1.657 L3.176,1.6615 L3.152,1.6665 L3.1295,1.6715 L3.1075,1.677 L3.0835,1.683 L3.058,1.6895 L3.035,1.696 L3.014,1.702 L2.991,1.709 L2.968,1.7165 L2.9465,1.7235 L2.9225,1.732 L2.9005,1.74 L2.8785,1.748 L2.857,1.7565 L2.836,1.765 L2.813,1.7745 L2.791,1.784 L2.7695,1.7935 L2.7485,1.803 L2.728,1.813 L2.705,1.824 L2.685,1.8345 L2.665,1.8445 L2.643,1.8565 L2.6235,1.867 L2.6015,1.8795 L2.5815,1.8915 L2.5625,1.9025 L2.543,1.915 L2.522,1.928 L2.502,1.941 L2.4825,1.954 L2.4635,1.967 L2.444,1.9805 L2.424,1.995 L2.4055,2.009 L2.3875,2.022 L2.3705,2.0355 L2.35,2.052 L2.3315,2.067 L2.315,2.081 L2.296,2.097 L2.2795,2.1115 L2.262,2.1275 L2.2435,2.144 L2.2255,2.161 L2.2085,2.1775 L2.194,2.192 L2.1775,2.2085 L2.1595,2.2275 L2.1435,2.2445 L2.1295,2.2595 L2.113,2.278 L2.0965,2.2965 L2.0815,2.3145 L2.066,2.3325 L2.0525,2.3495 L2.038,2.368 L2.0225,2.3875 L2.0085,2.406 L1.9945,2.425 L1.981,2.444 L1.9675,2.463 L1.954,2.4825 L1.941,2.502 L1.9285,2.5215 L1.916,2.541 L1.9035,2.5615 L1.8905,2.583 L1.88,2.6015 L1.869,2.621 L1.856,2.644 L1.845,2.6645 L1.834,2.6855 L1.824,2.7055 L1.8135,2.727 L1.8035,2.7485 L1.7935,2.77 L1.7835,2.792 L1.775,2.812 L1.766,2.834 L1.757,2.8565 L1.748,2.879 L1.74,2.9 L1.7325,2.9215 L1.724,2.946 L1.7165,2.9685 L1.7095,2.9905 L1.7025,3.0135 L1.696,3.0365 L1.6895,3.06 L1.6835,3.0815 L1.678,3.105 L1.672,3.129 L1.667,3.151 L1.662,3.176 L1.657,3.2005 L1.6525,3.2235 L1.6485,3.247 L1.645,3.2705 L1.641,3.296 L1.638,3.32 L1.635,3.344 L1.6325,3.369 L1.63,3.3935 L1.628,3.418 L1.6265,3.4415 L1.625,3.467 L1.624,3.4925 L1.623,3.5185 L1.6225,3.545 L1.6225,3.575 L1.6225,14.2715 L1.6225,14.302 L1.623,14.328 L1.624,14.354 L1.625,14.3795 L1.6265,14.405 L1.628,14.4285 L1.63,14.4535 L1.6325,14.478 L1.635,14.5025 L1.638,14.5265 L1.641,14.5505 L1.645,14.5765 L1.6485,14.6 L1.6525,14.623 L1.657,14.646 L1.662,14.671 L1.667,14.695 L1.672,14.7175 L1.678,14.742 L1.6835,14.765 L1.6895,14.787 L1.696,14.81 L1.7025,14.833 L1.7095,14.856 L1.7165,14.8785 L1.7245,14.9015 L1.7325,14.9245 L1.74,14.9465 L1.7485,14.9685 L1.7565,14.9895 L1.766,15.0125 L1.7755,15.0355 L1.7835,15.054 L1.7935,15.0765 L1.804,15.099 L1.8135,15.12 L1.824,15.141 L1.834,15.1615 L1.845,15.182 L1.856,15.203 L1.8685,15.225 L1.88,15.2455 L1.8905,15.264 L1.9035,15.2855 L1.9165,15.3065 L1.9285,15.3255 L1.941,15.3445 L1.954,15.364 L1.9675,15.3835 L1.981,15.403 L1.9935,15.4205 L2.0085,15.4405 L2.0235,15.4605 L2.038,15.479 L2.0515,15.496 L2.0655,15.513 L2.0825,15.533 L2.0975,15.551 L2.113,15.5685 L2.1285,15.586 L2.1435,15.602 L2.1605,15.6205 L2.1765,15.637 L2.193,15.654 L2.21,15.6705 L2.2265,15.6865 L2.2435,15.7025 L2.262,15.7195 L2.2795,15.735 L2.296,15.7495 L2.3135,15.765 L2.3315,15.78 L2.351,15.7955 L2.369,15.81 L2.3875,15.8245 L2.4055,15.838 L2.424,15.8515 L2.4455,15.867 L2.4635,15.8795 L2.4825,15.8925 L2.502,15.906 L2.521,15.918 L2.543,15.932 L2.5625,15.944 L2.5815,15.9555 L2.603,15.968 L2.6235,15.9795 L2.643,15.9905 L2.663,16.001 L2.685,16.0125 L2.7065,16.0235 L2.7265,16.033 L2.7485,16.0435 L2.771,16.054 L2.791,16.063 L2.813,16.0725 L2.8345,16.081 L2.855,16.0895 L2.8785,16.0985 L2.902,16.1075 L2.924,16.1155 L2.9465,16.123 L2.968,16.13 L2.9895,16.137 L3.014,16.1445 L3.037,16.151 L3.058,16.157 L3.0835,16.1635 L3.1055,16.1695 L3.1275,16.1745 L3.154,16.1805 L3.176,16.185 L3.1985,16.1895 L3.224,16.1945 L3.247,16.198 L3.2725,16.2025 L3.2965,16.206 L3.32,16.209 L3.3445,16.212 L3.369,16.2145 L3.3935,16.217 L3.4165,16.219 L3.444,16.2205 L3.469,16.222 L3.493,16.223 L3.519,16.224 L3.543,16.2245 L3.5735,16.2245 L14.274,16.2245 L14.304,16.2245 L14.3285,16.224 L14.3545,16.223 L14.378,16.222 L14.4035,16.2205 L14.4305,16.219 L14.4535,16.217 L14.4785,16.2145 L14.5025,16.212 L14.527,16.209 L14.551,16.206 L14.5745,16.2025 L14.6,16.198 L14.6235,16.194 L14.6485,16.1895 L14.671,16.185 L14.6935,16.1805 L14.72,16.1745 L14.7415,16.1695 L14.764,16.1635 L14.789,16.157 L14.8105,16.151 L14.834,16.144 L14.858,16.137 L14.8785,16.1305 L14.901,16.123 L14.923,16.1155 L14.945,16.1075 L14.9685,16.0985 L14.992,16.0895 L15.013,16.081 L15.034,16.0725 L15.056,16.063 L15.0765,16.054 L15.0985,16.0435 L15.121,16.033 L15.1405,16.0235 L15.1635,16.012 L15.184,16.001 L15.2035,15.991 L15.224,15.9795 L15.244,15.968 L15.266,15.9555 L15.2855,15.9435 L15.3055,15.931 L15.3255,15.9185 L15.344,15.9065 L15.365,15.8925 L15.384,15.8795 L15.403,15.8665 L15.4235,15.8515 L15.441,15.8385 L15.4595,15.8245 L15.478,15.81 L15.496,15.7955 L15.5155,15.78 L15.5335,15.765 L15.5515,15.7495 L15.568,15.735 L15.585,15.7195 L15.6045,15.7015 L15.6205,15.6865 L15.6365,15.6715 L15.654,15.654 L15.6715,15.636 L15.687,15.6205 L15.703,15.6035 L15.72,15.585 L15.7345,15.5685 L15.75,15.551 L15.765,15.533 L15.781,15.514 L15.796,15.496 L15.8095,15.479 L15.824,15.4605 L15.839,15.4405 L15.8535,15.4205 L15.8665,15.403 L15.88,15.3835 L15.8935,15.364 L15.906,15.3445 L15.919,15.3255 L15.9315,15.305 L15.944,15.2855 L15.9555,15.2655 L15.9685,15.2435 L15.979,15.225 L15.9905,15.2045 L16.002,15.182 L16.013,15.1615 L16.024,15.1395 L16.034,15.12 L16.0425,15.101 L16.054,15.0765 L16.064,15.054 L16.072,15.0355 L16.0815,15.0125 L16.091,14.9895 L16.099,14.9685 L16.107,14.9465 L16.1155,14.923 L16.123,14.9015 L16.13,14.88 L16.138,14.856 L16.1445,14.833 L16.1515,14.81 L16.158,14.787 L16.1635,14.765 L16.1695,14.742 L16.175,14.7175 L16.1805,14.695 L16.1855,14.671 L16.1905,14.646 L16.1945,14.623 L16.1985,14.6 L16.2025,14.5765 L16.206,14.5505 L16.2095,14.5265 L16.212,14.5025 L16.215,14.478 L16.217,14.4535 L16.2195,14.4285 L16.221,14.405 L16.2225,14.3775 L16.2235,14.352 L16.2245,14.33 L16.225,14.304 L16.225,14.2715 L16.225,3.575 L16.225,3.543 L16.2245,3.5165 L16.2235,3.4945 L16.2225,3.469 L16.221,3.4415 L16.2195,3.418 L16.217,3.3935 L16.215,3.369 L16.212,3.344 L16.2095,3.32 L16.206,3.296 L16.2025,3.2705 L16.1985,3.247 L16.1945,3.2235 L16.1905,3.2005 L16.1855,3.176 L16.18,3.151 L16.175,3.129 L16.1695,3.105 L16.1635,3.0815 L16.158,3.06 L16.1515,3.0365 L16.1445,3.0135 L16.1375,2.9905 L16.13,2.9665 L16.1235,2.946 L16.1155,2.923 L16.107,2.9 L16.099,2.879 L16.0905,2.8565 L16.0815,2.834 L16.0725,2.812 L16.0635,2.792 L16.054,2.77 L16.043,2.7465 L16.034,2.727 L16.024,2.7075 L16.013,2.6855 L16.002,2.6645 L15.9905,2.642 L15.9785,2.621 L15.9685,2.603 L15.9555,2.5815 L15.944,2.5615 L15.932,2.5425 L15.919,2.5215 L15.906,2.502 L15.8935,2.4825 L15.88,2.463 L15.8665,2.444 L15.853,2.425 L15.839,2.406 L15.8245,2.3875 L15.8095,2.368 L15.795,2.3495 L15.78,2.3315 L15.766,2.3145 L15.751,2.2965 L15.7345,2.278 L15.719,2.2605 L15.703,2.2435 L15.688,2.2275 L15.6705,2.2095 L15.653,2.192 L15.6375,2.1765 L15.622,2.161 L15.6045,2.145 L15.585,2.1275 L15.568,2.1115 L15.5515,2.097 L15.5325,2.081 L15.5155,2.067 L15.4975,2.052 L15.477,2.0355 L15.4595,2.022 L15.441,2.008 L15.4235,1.995 L15.404,1.9815 L15.384,1.967 L15.365,1.954 L15.344,1.94 L15.324,1.9275 L15.3055,1.9155 L15.2855,1.9035 L15.266,1.8915 L15.2455,1.8795 L15.224,1.867 L15.2035,1.856 L15.1825,1.8445 L15.1635,1.8345 L15.1425,1.824 L15.1195,1.813 L15.0985,1.803 L15.078,1.7935 L15.056,1.784 L15.034,1.7745 L15.011,1.765 L14.9905,1.7565 L14.9685,1.748 L14.947,1.74 L14.925,1.732 L14.901,1.7235 L14.8785,1.7165 L14.856,1.709 L14.834,1.7025 L14.8125,1.696 L14.789,1.6895 L14.764,1.683 L14.74,1.677 L14.718,1.6715 L14.6955,1.6665 L14.671,1.6615 L14.6485,1.657 L14.6255,1.653 L14.598,1.648 L14.5745,1.6445 L14.553,1.641 L14.527,1.6375 L14.5025,1.635 L14.4785,1.632 L14.4535,1.63 L14.4285,1.6275 L14.4035,1.626 L14.38,1.6245 L14.3545,1.6235 L14.3285,1.6225 L14.302,1.622 L14.272,1.622 L3.5755,1.622 Z" id="Fill-42" fill="#000000"></path>
                                        <text id="2" font-family="Bebas" font-size="11.8698" font-weight="normal" fill="#FFFFFF">
                                            <tspan x="8.905" y="14.1074919">2</tspan>
                                        </text>
                                        <path d="M34.0715,3.5695 C34.0715,1.5995 32.472,-1.42108547e-14 30.502,-1.42108547e-14 L19.794,-1.42108547e-14 C17.824,-1.42108547e-14 16.2245,1.5995 16.2245,3.5695 L16.2245,14.2775 C16.2245,16.2475 17.824,17.847 19.794,17.847 L30.502,17.847 C32.472,17.847 34.0715,16.2475 34.0715,14.2775 L34.0715,3.5695 Z" id="Fill-43" fill="#162629"></path>
                                        <path d="M30.548,-1.42108547e-14 L30.594,0.001 L30.64,0.0025 L30.6855,0.0045 L30.731,0.007 L30.7765,0.0105 L30.822,0.014 L30.867,0.0185 L30.912,0.023 L30.9565,0.0285 L31.001,0.0345 L31.0455,0.041 L31.0895,0.048 L31.1335,0.0555 L31.1775,0.064 L31.221,0.0725 L31.2645,0.0815 L31.308,0.0915 L31.351,0.1015 L31.3935,0.1125 L31.4365,0.1235 L31.479,0.1355 L31.521,0.1475 L31.563,0.1605 L31.605,0.174 L31.6465,0.1875 L31.688,0.202 L31.729,0.2165 L31.77,0.232 L31.8105,0.2475 L31.851,0.264 L31.891,0.2805 L31.931,0.2975 L31.9705,0.3155 L32.01,0.3335 L32.049,0.352 L32.088,0.371 L32.1265,0.3905 L32.165,0.4105 L32.203,0.431 L32.2405,0.452 L32.278,0.473 L32.3155,0.495 L32.3525,0.517 L32.389,0.5395 L32.4255,0.5625 L32.4615,0.586 L32.497,0.61 L32.5325,0.634 L32.568,0.659 L32.6025,0.684 L32.637,0.7095 L32.6715,0.7355 L32.7055,0.7615 L32.739,0.7885 L32.772,0.8155 L32.805,0.843 L32.8375,0.8705 L32.8695,0.899 L32.9015,0.9275 L32.933,0.9565 L32.9645,0.986 L32.995,1.0155 L33.0255,1.046 L33.0555,1.0765 L33.0855,1.107 L33.115,1.1385 L33.144,1.17 L33.1725,1.2015 L33.2005,1.234 L33.2285,1.2665 L33.256,1.2995 L33.283,1.3325 L33.31,1.366 L33.336,1.4 L33.362,1.434 L33.3875,1.4685 L33.4125,1.5035 L33.4375,1.5385 L33.4615,1.574 L33.4855,1.61 L33.509,1.646 L33.532,1.6825 L33.5545,1.719 L33.5765,1.756 L33.5985,1.793 L33.6195,1.8305 L33.6405,1.8685 L33.661,1.9065 L33.681,1.945 L33.7005,1.9835 L33.7195,2.0225 L33.738,2.0615 L33.756,2.101 L33.7735,2.1405 L33.791,2.1805 L33.8075,2.2205 L33.824,2.261 L33.8395,2.3015 L33.855,2.3425 L33.8695,2.3835 L33.884,2.425 L33.8975,2.4665 L33.911,2.5085 L33.9235,2.5505 L33.936,2.5925 L33.948,2.635 L33.959,2.6775 L33.97,2.7205 L33.98,2.7635 L33.99,2.807 L33.999,2.8505 L34.0075,2.894 L34.0155,2.938 L34.0235,2.982 L34.0305,3.026 L34.037,3.0705 L34.043,3.115 L34.048,3.1595 L34.053,3.2045 L34.0575,3.2495 L34.061,3.295 L34.0645,3.34 L34.067,3.3855 L34.069,3.4315 L34.0705,3.477 L34.071,3.523 L34.0715,3.5695 L34.0715,14.2775 L34.071,14.3235 L34.0705,14.3695 L34.069,14.4155 L34.067,14.461 L34.0645,14.5065 L34.061,14.552 L34.0575,14.597 L34.053,14.642 L34.048,14.687 L34.043,14.732 L34.037,14.7765 L34.0305,14.8205 L34.0235,14.865 L34.0155,14.909 L34.0075,14.953 L33.999,14.9965 L33.99,15.04 L33.98,15.083 L33.97,15.126 L33.959,15.169 L33.948,15.2115 L33.936,15.254 L33.9235,15.2965 L33.911,15.3385 L33.8975,15.38 L33.884,15.4215 L33.8695,15.463 L33.855,15.504 L33.8395,15.545 L33.824,15.5855 L33.8075,15.626 L33.791,15.666 L33.7735,15.706 L33.756,15.746 L33.738,15.785 L33.7195,15.8245 L33.7005,15.863 L33.681,15.902 L33.661,15.94 L33.6405,15.978 L33.6195,16.016 L33.5985,16.0535 L33.5765,16.091 L33.5545,16.1275 L33.532,16.1645 L33.509,16.2005 L33.4855,16.237 L33.4615,16.2725 L33.4375,16.308 L33.4125,16.343 L33.3875,16.378 L33.362,16.4125 L33.336,16.4465 L33.31,16.4805 L33.283,16.514 L33.256,16.5475 L33.2285,16.58 L33.2005,16.613 L33.1725,16.645 L33.144,16.677 L33.115,16.7085 L33.0855,16.7395 L33.0555,16.7705 L33.0255,16.801 L32.995,16.831 L32.9645,16.8605 L32.933,16.89 L32.9015,16.919 L32.8695,16.9475 L32.8375,16.976 L32.805,17.004 L32.772,17.0315 L32.739,17.0585 L32.7055,17.085 L32.6715,17.1115 L32.637,17.1375 L32.6025,17.163 L32.568,17.188 L32.5325,17.2125 L32.497,17.237 L32.4615,17.2605 L32.4255,17.284 L32.389,17.307 L32.3525,17.33 L32.3155,17.352 L32.278,17.3735 L32.2405,17.395 L32.203,17.4155 L32.165,17.436 L32.1265,17.456 L32.088,17.4755 L32.049,17.4945 L32.01,17.513 L31.9705,17.5315 L31.931,17.549 L31.891,17.566 L31.851,17.583 L31.8105,17.599 L31.77,17.615 L31.729,17.63 L31.688,17.645 L31.6465,17.659 L31.605,17.673 L31.563,17.686 L31.521,17.699 L31.479,17.7115 L31.4365,17.723 L31.3935,17.7345 L31.351,17.745 L31.308,17.7555 L31.2645,17.765 L31.221,17.774 L31.1775,17.783 L31.1335,17.791 L31.0895,17.7985 L31.0455,17.8055 L31.001,17.812 L30.9565,17.818 L30.912,17.8235 L30.867,17.8285 L30.822,17.8325 L30.7765,17.8365 L30.731,17.8395 L30.6855,17.842 L30.64,17.844 L30.594,17.8455 L30.548,17.8465 L30.502,17.847 L19.794,17.847 L19.748,17.8465 L19.702,17.8455 L19.656,17.844 L19.6105,17.842 L19.565,17.8395 L19.5195,17.8365 L19.4745,17.8325 L19.429,17.8285 L19.3845,17.8235 L19.3395,17.818 L19.295,17.812 L19.2505,17.8055 L19.2065,17.7985 L19.1625,17.791 L19.1185,17.783 L19.075,17.774 L19.0315,17.765 L18.9885,17.7555 L18.945,17.745 L18.9025,17.7345 L18.8595,17.723 L18.8175,17.7115 L18.775,17.699 L18.733,17.686 L18.691,17.673 L18.6495,17.659 L18.6085,17.645 L18.567,17.63 L18.5265,17.615 L18.4855,17.599 L18.4455,17.583 L18.405,17.566 L18.3655,17.549 L18.3255,17.5315 L18.286,17.513 L18.247,17.4945 L18.208,17.4755 L18.1695,17.456 L18.131,17.436 L18.093,17.4155 L18.0555,17.395 L18.018,17.3735 L17.9805,17.352 L17.9435,17.33 L17.907,17.307 L17.8705,17.284 L17.8345,17.2605 L17.799,17.237 L17.7635,17.2125 L17.7285,17.188 L17.6935,17.163 L17.659,17.1375 L17.6245,17.1115 L17.591,17.085 L17.5575,17.0585 L17.524,17.0315 L17.491,17.004 L17.4585,16.976 L17.4265,16.9475 L17.3945,16.919 L17.363,16.89 L17.332,16.8605 L17.301,16.831 L17.2705,16.801 L17.2405,16.7705 L17.2105,16.7395 L17.1815,16.7085 L17.1525,16.677 L17.1235,16.645 L17.0955,16.613 L17.0675,16.58 L17.04,16.5475 L17.013,16.514 L16.9865,16.4805 L16.96,16.4465 L16.934,16.4125 L16.9085,16.378 L16.8835,16.343 L16.859,16.308 L16.8345,16.2725 L16.8105,16.237 L16.787,16.2005 L16.764,16.1645 L16.7415,16.1275 L16.7195,16.091 L16.698,16.0535 L16.6765,16.016 L16.6555,15.978 L16.6355,15.94 L16.6155,15.902 L16.596,15.863 L16.577,15.8245 L16.558,15.785 L16.54,15.746 L16.5225,15.706 L16.5055,15.666 L16.4885,15.626 L16.4725,15.5855 L16.4565,15.545 L16.4415,15.504 L16.4265,15.463 L16.4125,15.4215 L16.3985,15.38 L16.385,15.3385 L16.3725,15.2965 L16.36,15.254 L16.3485,15.2115 L16.337,15.169 L16.3265,15.126 L16.316,15.083 L16.3065,15.04 L16.297,14.9965 L16.2885,14.953 L16.2805,14.909 L16.273,14.865 L16.2655,14.8205 L16.259,14.7765 L16.2535,14.732 L16.248,14.687 L16.243,14.642 L16.2385,14.597 L16.235,14.552 L16.232,14.5065 L16.229,14.461 L16.227,14.4155 L16.2255,14.3695 L16.225,14.3235 L16.2245,14.2775 L16.2245,3.5695 L16.225,3.523 L16.2255,3.477 L16.227,3.4315 L16.229,3.3855 L16.232,3.34 L16.235,3.295 L16.2385,3.2495 L16.243,3.2045 L16.248,3.1595 L16.2535,3.115 L16.259,3.0705 L16.2655,3.026 L16.273,2.982 L16.2805,2.938 L16.2885,2.894 L16.297,2.8505 L16.3065,2.807 L16.316,2.7635 L16.3265,2.7205 L16.337,2.6775 L16.3485,2.635 L16.36,2.5925 L16.3725,2.5505 L16.385,2.5085 L16.3985,2.4665 L16.4125,2.425 L16.4265,2.3835 L16.4415,2.3425 L16.4565,2.3015 L16.4725,2.261 L16.4885,2.2205 L16.5055,2.1805 L16.5225,2.1405 L16.54,2.101 L16.558,2.0615 L16.577,2.0225 L16.596,1.9835 L16.6155,1.945 L16.6355,1.9065 L16.6555,1.8685 L16.6765,1.8305 L16.698,1.793 L16.7195,1.756 L16.7415,1.719 L16.764,1.6825 L16.787,1.646 L16.8105,1.61 L16.8345,1.574 L16.859,1.5385 L16.8835,1.5035 L16.9085,1.4685 L16.934,1.434 L16.96,1.4 L16.9865,1.366 L17.013,1.3325 L17.04,1.2995 L17.0675,1.2665 L17.0955,1.234 L17.1235,1.2015 L17.1525,1.17 L17.1815,1.1385 L17.2105,1.107 L17.2405,1.0765 L17.2705,1.046 L17.301,1.0155 L17.332,0.986 L17.363,0.9565 L17.3945,0.9275 L17.4265,0.899 L17.4585,0.8705 L17.491,0.843 L17.524,0.8155 L17.5575,0.7885 L17.591,0.7615 L17.6245,0.7355 L17.659,0.7095 L17.6935,0.684 L17.7285,0.659 L17.7635,0.634 L17.799,0.61 L17.8345,0.586 L17.8705,0.5625 L17.907,0.5395 L17.9435,0.517 L17.9805,0.495 L18.018,0.473 L18.0555,0.452 L18.093,0.431 L18.131,0.4105 L18.1695,0.3905 L18.208,0.371 L18.247,0.352 L18.286,0.3335 L18.3255,0.3155 L18.3655,0.2975 L18.405,0.2805 L18.4455,0.264 L18.4855,0.2475 L18.5265,0.232 L18.567,0.2165 L18.6085,0.202 L18.6495,0.1875 L18.691,0.174 L18.733,0.1605 L18.775,0.1475 L18.8175,0.1355 L18.8595,0.1235 L18.9025,0.1125 L18.945,0.1015 L18.9885,0.0915 L19.0315,0.0815 L19.075,0.0725 L19.1185,0.064 L19.1625,0.0555 L19.2065,0.048 L19.2505,0.041 L19.295,0.0345 L19.3395,0.0285 L19.3845,0.023 L19.429,0.0185 L19.4745,0.014 L19.5195,0.0105 L19.565,0.007 L19.6105,0.0045 L19.656,0.0025 L19.702,0.001 L19.748,-1.42108547e-14 L19.794,-1.42108547e-14 L30.502,-1.42108547e-14 L30.548,-1.42108547e-14 Z M19.8,1.622 L19.7695,1.622 L19.7435,1.6225 L19.7175,1.6235 L19.6915,1.6245 L19.668,1.626 L19.643,1.6275 L19.618,1.63 L19.593,1.632 L19.5685,1.635 L19.5445,1.6375 L19.519,1.641 L19.497,1.6445 L19.4735,1.648 L19.446,1.653 L19.4235,1.657 L19.4005,1.6615 L19.3765,1.6665 L19.3545,1.6715 L19.3315,1.677 L19.308,1.683 L19.283,1.6895 L19.2595,1.696 L19.238,1.7025 L19.2155,1.709 L19.193,1.7165 L19.17,1.724 L19.1465,1.732 L19.125,1.74 L19.103,1.748 L19.082,1.756 L19.0605,1.765 L19.0375,1.7745 L19.0155,1.784 L18.993,1.794 L18.973,1.803 L18.9535,1.8125 L18.9295,1.824 L18.9085,1.8345 L18.889,1.8445 L18.8685,1.856 L18.848,1.867 L18.826,1.8795 L18.806,1.8915 L18.786,1.9035 L18.766,1.9155 L18.7475,1.9275 L18.7265,1.941 L18.707,1.954 L18.688,1.967 L18.6675,1.9815 L18.6495,1.9945 L18.631,2.008 L18.611,2.023 L18.595,2.0355 L18.5755,2.0515 L18.556,2.067 L18.5395,2.081 L18.5205,2.097 L18.503,2.1125 L18.4865,2.1275 L18.468,2.144 L18.45,2.161 L18.434,2.1765 L18.4185,2.192 L18.401,2.2095 L18.384,2.2275 L18.369,2.2435 L18.353,2.2605 L18.337,2.278 L18.321,2.2965 L18.3055,2.3145 L18.2915,2.3315 L18.277,2.3495 L18.262,2.368 L18.246,2.389 L18.233,2.406 L18.22,2.4235 L18.2055,2.444 L18.192,2.463 L18.1785,2.4825 L18.1655,2.502 L18.153,2.5215 L18.1395,2.5425 L18.128,2.5615 L18.116,2.5815 L18.1035,2.603 L18.0925,2.6225 L18.0815,2.642 L18.0705,2.663 L18.0585,2.6855 L18.0475,2.7075 L18.038,2.727 L18.028,2.7485 L18.018,2.77 L18.009,2.79 L17.9985,2.8135 L17.99,2.834 L17.982,2.855 L17.9725,2.879 L17.964,2.902 L17.9565,2.923 L17.949,2.944 L17.941,2.9685 L17.934,2.9905 L17.9275,3.012 L17.9205,3.0365 L17.914,3.06 L17.908,3.0815 L17.902,3.105 L17.8965,3.129 L17.891,3.153 L17.8865,3.176 L17.882,3.199 L17.877,3.2235 L17.873,3.247 L17.869,3.2725 L17.8655,3.296 L17.8625,3.318 L17.8595,3.344 L17.857,3.369 L17.8545,3.3935 L17.8525,3.418 L17.8505,3.4435 L17.849,3.469 L17.848,3.4925 L17.8475,3.5185 L17.847,3.543 L17.8465,3.573 L17.8465,14.2735 L17.847,14.304 L17.8475,14.328 L17.848,14.354 L17.849,14.3775 L17.8505,14.403 L17.8525,14.4285 L17.8545,14.4535 L17.857,14.478 L17.8595,14.5025 L17.8625,14.5285 L17.8655,14.5505 L17.869,14.5745 L17.873,14.6 L17.877,14.623 L17.882,14.648 L17.8865,14.671 L17.891,14.693 L17.8965,14.7175 L17.9025,14.742 L17.908,14.765 L17.914,14.787 L17.9205,14.81 L17.9275,14.835 L17.934,14.856 L17.941,14.8785 L17.9495,14.903 L17.956,14.923 L17.964,14.945 L17.973,14.9685 L17.9815,14.991 L17.99,15.0125 L17.999,15.0335 L18.0085,15.056 L18.018,15.0765 L18.028,15.099 L18.038,15.12 L18.0475,15.1395 L18.0585,15.1615 L18.0705,15.184 L18.0815,15.2045 L18.092,15.2235 L18.1035,15.2435 L18.116,15.2655 L18.128,15.2855 L18.14,15.305 L18.153,15.3255 L18.1655,15.3445 L18.1785,15.364 L18.192,15.3835 L18.2055,15.403 L18.219,15.422 L18.233,15.4405 L18.247,15.459 L18.262,15.479 L18.276,15.496 L18.291,15.514 L18.3065,15.533 L18.322,15.551 L18.337,15.5685 L18.352,15.585 L18.369,15.6035 L18.385,15.6205 L18.4,15.636 L18.4175,15.654 L18.4355,15.6715 L18.451,15.6865 L18.468,15.7025 L18.4865,15.7195 L18.503,15.734 L18.5205,15.7495 L18.538,15.765 L18.556,15.78 L18.5765,15.7965 L18.5935,15.81 L18.611,15.8235 L18.631,15.8385 L18.6495,15.8525 L18.669,15.8665 L18.688,15.8795 L18.707,15.8925 L18.7265,15.906 L18.746,15.9185 L18.766,15.931 L18.786,15.9435 L18.806,15.9555 L18.8275,15.968 L18.848,15.9795 L18.8685,15.991 L18.8875,16.001 L18.9085,16.012 L18.931,16.0235 L18.9515,16.0335 L18.973,16.0435 L18.9945,16.0535 L19.0155,16.063 L19.0375,16.0725 L19.059,16.081 L19.0805,16.09 L19.103,16.0985 L19.1265,16.1075 L19.1485,16.1155 L19.17,16.123 L19.193,16.1305 L19.2135,16.137 L19.238,16.144 L19.2615,16.151 L19.283,16.157 L19.308,16.1635 L19.3295,16.169 L19.3525,16.1745 L19.378,16.1805 L19.4005,16.185 L19.4235,16.1895 L19.448,16.194 L19.4715,16.198 L19.497,16.2025 L19.521,16.206 L19.5445,16.209 L19.5685,16.212 L19.593,16.2145 L19.618,16.217 L19.641,16.219 L19.668,16.2205 L19.6935,16.222 L19.7175,16.223 L19.7435,16.224 L19.7675,16.2245 L19.798,16.2245 L30.498,16.2245 L30.5285,16.2245 L30.553,16.224 L30.5785,16.223 L30.6025,16.222 L30.628,16.2205 L30.655,16.219 L30.678,16.217 L30.7025,16.2145 L30.727,16.212 L30.7515,16.209 L30.775,16.206 L30.7995,16.202 L30.8245,16.198 L30.8475,16.1945 L30.8725,16.1895 L30.8955,16.185 L30.9185,16.1805 L30.9445,16.1745 L30.966,16.1695 L30.988,16.164 L31.0135,16.157 L31.0355,16.151 L31.058,16.1445 L31.0825,16.137 L31.103,16.1305 L31.1255,16.123 L31.148,16.115 L31.1695,16.1075 L31.1925,16.099 L31.2165,16.0895 L31.238,16.081 L31.258,16.0725 L31.2805,16.063 L31.3015,16.0535 L31.323,16.0435 L31.3445,16.0335 L31.365,16.0235 L31.3875,16.012 L31.4085,16.001 L31.4275,15.991 L31.448,15.9795 L31.4685,15.968 L31.49,15.9555 L31.51,15.9435 L31.529,15.932 L31.55,15.9185 L31.5695,15.906 L31.59,15.892 L31.6085,15.8795 L31.626,15.867 L31.6475,15.8515 L31.6655,15.8385 L31.684,15.8245 L31.7035,15.809 L31.7205,15.7955 L31.74,15.78 L31.758,15.765 L31.7745,15.7505 L31.7925,15.735 L31.8105,15.7185 L31.828,15.7025 L31.845,15.6865 L31.862,15.6705 L31.8785,15.654 L31.895,15.637 L31.9115,15.6205 L31.9285,15.602 L31.943,15.586 L31.958,15.57 L31.974,15.551 L31.9905,15.532 L32.0065,15.513 L32.02,15.496 L32.034,15.479 L32.0485,15.4605 L32.0635,15.4405 L32.078,15.4205 L32.091,15.403 L32.1045,15.3835 L32.117,15.3655 L32.1295,15.346 L32.144,15.324 L32.156,15.305 L32.168,15.2855 L32.181,15.264 L32.192,15.2455 L32.2035,15.225 L32.2155,15.203 L32.2265,15.182 L32.2375,15.1615 L32.248,15.141 L32.258,15.12 L32.268,15.099 L32.2775,15.0785 L32.2875,15.056 L32.297,15.0335 L32.3065,15.0105 L32.3155,14.9895 L32.3235,14.9685 L32.3315,14.9465 L32.3395,14.9245 L32.3475,14.9015 L32.355,14.8785 L32.362,14.856 L32.369,14.833 L32.376,14.81 L32.3825,14.787 L32.388,14.765 L32.394,14.742 L32.3995,14.7175 L32.4045,14.695 L32.41,14.671 L32.415,14.646 L32.419,14.623 L32.423,14.6 L32.427,14.5765 L32.43,14.5525 L32.4335,14.5265 L32.4365,14.5025 L32.439,14.478 L32.4415,14.4535 L32.4435,14.4285 L32.4455,14.403 L32.447,14.3795 L32.448,14.354 L32.4485,14.328 L32.449,14.302 L32.4495,14.2715 L32.4495,3.575 L32.449,3.545 L32.4485,3.5185 L32.448,3.4925 L32.447,3.467 L32.4455,3.4435 L32.4435,3.418 L32.4415,3.3935 L32.439,3.369 L32.4365,3.344 L32.4335,3.32 L32.43,3.294 L32.427,3.2705 L32.423,3.247 L32.419,3.2235 L32.415,3.2005 L32.41,3.176 L32.4045,3.151 L32.3995,3.129 L32.394,3.105 L32.388,3.0815 L32.3825,3.06 L32.376,3.0365 L32.369,3.0135 L32.362,2.9905 L32.355,2.9685 L32.3475,2.946 L32.339,2.9215 L32.3315,2.9 L32.3235,2.879 L32.315,2.8565 L32.3065,2.836 L32.2975,2.8135 L32.287,2.79 L32.2775,2.768 L32.2685,2.7485 L32.258,2.727 L32.248,2.7055 L32.2375,2.6855 L32.2265,2.6645 L32.2155,2.644 L32.203,2.621 L32.192,2.6015 L32.181,2.583 L32.168,2.5615 L32.1565,2.5425 L32.144,2.523 L32.1295,2.5005 L32.117,2.481 L32.1045,2.463 L32.091,2.444 L32.0775,2.425 L32.0635,2.406 L32.049,2.3875 L32.034,2.368 L32.0195,2.3495 L32.0055,2.3325 L31.9915,2.3155 L31.975,2.2965 L31.958,2.277 L31.942,2.2595 L31.9285,2.2445 L31.9125,2.2275 L31.894,2.2085 L31.8775,2.192 L31.863,2.1775 L31.846,2.161 L31.828,2.144 L31.8105,2.128 L31.7925,2.1115 L31.7745,2.096 L31.757,2.081 L31.74,2.067 L31.722,2.052 L31.702,2.0365 L31.684,2.022 L31.6655,2.008 L31.6475,1.995 L31.6275,1.9805 L31.6085,1.967 L31.59,1.9545 L31.5695,1.941 L31.5485,1.9275 L31.529,1.915 L31.51,1.9035 L31.49,1.8915 L31.47,1.8795 L31.448,1.867 L31.4275,1.856 L31.407,1.8445 L31.3875,1.8345 L31.3665,1.824 L31.343,1.8125 L31.323,1.803 L31.303,1.794 L31.2805,1.784 L31.258,1.774 L31.236,1.765 L31.2145,1.7565 L31.1925,1.748 L31.1715,1.74 L31.15,1.7325 L31.1255,1.7235 L31.103,1.7165 L31.0805,1.709 L31.058,1.702 L31.0375,1.696 L31.0135,1.6895 L30.988,1.683 L30.964,1.677 L30.9425,1.6715 L30.92,1.667 L30.8955,1.6615 L30.8725,1.657 L30.8495,1.653 L30.8225,1.648 L30.7995,1.6445 L30.777,1.641 L30.7515,1.6375 L30.727,1.635 L30.7025,1.632 L30.678,1.63 L30.653,1.6275 L30.628,1.626 L30.6045,1.6245 L30.5785,1.6235 L30.553,1.6225 L30.5265,1.622 L30.4965,1.622 L19.8,1.622 Z" id="Fill-44" fill="#000000"></path>
                                        <text id="19" font-family="Bebas" font-size="11.8698" font-weight="normal" letter-spacing="1.45761144" fill="#FFFFFF">
                                            <tspan x="19.4425" y="14.1074919">1</tspan>
                                            <tspan x="25.217983" y="14.1074919" letter-spacing="-5.89929056">9</tspan>
                                        </text>
                                        <path d="M2.73203682e-12,8.9235 L34.0715,8.9235" id="Stroke-45" stroke="#000000" stroke-width="0.9247" stroke-linejoin="round"></path>
                                    </g>
                                </g>
                            </g>
                        </g>
                    </g>
                </g>
            </g>
        </g>
    </g>
</svg>