<?xml version="1.0" encoding="UTF-8"?>
<svg width="408px" height="220px" viewBox="0 0 408 220" version="1.1" xmlns="http://www.w3.org/2000/svg" xmlns:xlink="http://www.w3.org/1999/xlink">
    <!-- Generator: Sketch 53.1 (72631) - https://sketchapp.com -->
    <title>workplace/mg</title>
    <desc>Created with Sketch.</desc>
    <defs>
        <path d="M44.2172,0.522933333 C46.149025,3.96393333 47.251525,7.9402 47.251525,12.1754667 C47.251525,25.2722333 36.7055,35.89 23.696,35.89 C10.687725,35.89 0.1417,25.2722333 0.1417,12.1754667 C0.1417,7.9402 1.2442,3.96393333 3.176025,0.522933333 L44.2172,0.522933333 Z" id="path-1"></path>
        <path d="M0.93962971,39 C0.32597269,36.5667412 0,34.0190591 0,31.395242 C0,14.2744147 13.8791728,0.395241983 31,0.395241983 C48.1208272,0.395241983 62,14.2744147 62,31.395242 C62,34.0190591 61.6740273,36.5667412 61.0603703,39 L0.93962971,39 Z" id="path-3"></path>
    </defs>
    <g id="Page-1" stroke="none" stroke-width="1" fill="none" fill-rule="evenodd">
        <g id="Fuller-Page-Copy-8" transform="translate(-792.000000, -660.000000)">
            <g id="Group-6" transform="translate(180.000000, 659.000000)">
                <g id="Group-4">
                    <g id="Group">
                        <g id="Card-Copy" transform="translate(552.000000, 0.000000)">
                            <g id="stoble-workplace" transform="translate(60.000000, 0.000000)">
                                <g id="workplace-mg" transform="translate(0.000000, 1.000000)">
                                    <g id="plant" transform="translate(47.000000, 163.000000)">
                                        <g id="Group-8">
                                            <path d="M16.1190609,27 C18.6642208,20.749054 18.6266395,15.3229908 16.0050212,10.7205489 C13.3846988,6.11810706 8.67667139,3.21083699 1.88093907,2 C-0.664220783,8.24968468 -0.626639502,13.6770092 1.99497882,18.2794511 C4.61659714,22.8818929 9.32462451,25.7879017 16.1190609,27 Z" id="Fill-23" fill="#004157"></path>
                                            <path d="M31.8810779,27 C29.3359399,20.749054 29.3735209,15.3229908 31.9938207,10.7205489 C34.6154165,6.11810706 39.3234033,3.21083699 46.1190771,2 C48.6642151,8.24968468 48.6266341,13.6770092 46.0050384,18.2794511 C43.3834426,22.8818929 38.6754558,25.7879017 31.8810779,27 Z" id="Fill-24" fill="#004157"></path>
                                            <path d="M23.9993528,29 C29.3335491,24.6721384 32,19.838805 32,14.5 C32,9.16119495 29.3335491,4.32786162 23.9993528,0 C18.6664509,4.32786162 16,9.16119495 16,14.5 C16,19.838805 18.6664509,24.6721384 23.9993528,29 Z" id="Fill-25" fill="#005D7C"></path>
                                        </g>
                                        <g id="Group-29" transform="translate(0.000000, 20.000000)">
                                            <mask id="mask-2" fill="white">
                                                <use xlink:href="#path-1"></use>
                                            </mask>
                                            <g id="Clip-28"></g>
                                            <path d="M44.2172,0.522933333 C46.149025,3.96393333 47.251525,7.9402 47.251525,12.1754667 C47.251525,25.2722333 36.7055,35.89 23.696,35.89 C10.687725,35.89 0.1417,25.2722333 0.1417,12.1754667 C0.1417,7.9402 1.2442,3.96393333 3.176025,0.522933333 L44.2172,0.522933333 Z" id="Fill-26" fill="#E3ECEC" mask="url(#mask-2)"></path>
                                            <path d="M47.8922,-4.4104 C49.824025,-0.9694 50.926525,3.00686667 50.926525,7.24213333 C50.926525,20.3389 40.3805,30.9566667 27.371,30.9566667 C14.362725,30.9566667 3.8167,20.3389 3.8167,7.24213333 C3.8167,3.00686667 4.9192,-0.9694 6.851025,-4.4104 L47.8922,-4.4104 Z" id="Fill-27" fill="#FFFFFF" mask="url(#mask-2)"></path>
                                        </g>
                                    </g>
                                    <g id="lamp" transform="translate(173.000000, 0.000000)">
                                        <rect id="Rectangle" fill="#7D2E0F" x="31" y="0" width="1" height="40"></rect>
                                        <circle id="Oval" fill="#EDBF5A" cx="31" cy="71" r="9"></circle>
                                        <g id="Shade" transform="translate(0.000000, 36.000000)">
                                            <mask id="mask-4" fill="white">
                                                <use xlink:href="#path-3"></use>
                                            </mask>
                                            <use id="Mask" fill="#B95933" xlink:href="#path-3"></use>
                                            <path d="M42,35 C58.0162577,35 71,31.607626 71,18.2272727 C71,4.84691947 58.0162577,-6 42,-6 C25.9837423,-6 13,4.84691947 13,18.2272727 C13,31.607626 25.9837423,35 42,35 Z" id="Oval" fill="#D46336" mask="url(#mask-4)"></path>
                                        </g>
                                    </g>
                                </g>
                            </g>
                        </g>
                    </g>
                </g>
            </g>
        </g>
    </g>
</svg>