<?xml version="1.0" encoding="UTF-8"?>
<svg width="316px" height="500px" viewBox="0 0 316 500" version="1.1" xmlns="http://www.w3.org/2000/svg" xmlns:xlink="http://www.w3.org/1999/xlink">
    <!-- Generator: Sketch 53.1 (72631) - https://sketchapp.com -->
    <title>shapes 1</title>
    <desc>Created with Sketch.</desc>
    <g id="Page-1" stroke="none" stroke-width="1" fill="none" fill-rule="evenodd">
        <g id="Fuller-Page-Copy-8" transform="translate(-944.000000, -136.000000)">
            <g id="Mission" transform="translate(180.000000, 97.000000)">
                <g id="shapes" transform="translate(-365.000000, -392.000000)">
                    <g id="shapes-1" transform="translate(654.338631, 261.289859)">
                        <path d="M567.595963,757.766316 C523.98278,629.8332 399.486076,594.572981 355.067391,464.276733 C301.492357,307.12082 386.275011,136.266364 544.278578,82.9815445 C702.282528,29.6929138 874.058941,114.022429 927.631293,271.174531 C972.05266,401.47459 895.461057,506.744506 938.403245,632.707074 C981.345432,758.673454 1106.51237,795.900409 1150.93373,926.196656 C1204.50608,1083.35371 1119.72535,1254.20703 961.721397,1307.49451 C803.717446,1360.782 631.942566,1276.45439 578.367532,1119.29886 C533.948847,989.002611 611.209146,885.699432 567.595963,757.766316 Z" id="Fill-1-Copy-2" fill="#DEE7EA" opacity="0.400000006" transform="translate(753.000000, 695.237834) rotate(56.000000) translate(-753.000000, -695.237834) "></path>
                        <circle id="Oval-Copy" fill="#D46336" cx="725.721697" cy="433.604604" r="42.8101535"></circle>
                        <path d="M679.130837,595.785491 C668.17112,563.645958 636.885887,554.787837 625.723753,522.054634 C612.260686,482.573708 633.56603,439.651416 673.271326,426.26513 C712.976718,412.877887 756.143042,434.063264 769.605435,473.543232 C780.768243,506.277392 761.521258,532.723446 772.312358,564.367936 C783.103458,596.013384 814.557115,605.365591 825.719923,638.098794 C839.182316,677.580006 817.877454,720.502011 778.172062,733.888967 C738.46667,747.275923 695.300731,726.091025 681.837664,686.610196 C670.67553,653.876992 690.090554,627.925025 679.130837,595.785491 Z" id="Fill-1-Copy" fill="#004861" style="mix-blend-mode: multiply;" transform="translate(725.721697, 580.077000) rotate(173.000000) translate(-725.721697, -580.077000) "></path>
                    </g>
                </g>
            </g>
        </g>
    </g>
</svg>